<?xml version="1.0" encoding="UTF-8"?>
<svg id="Layer_1" xmlns="http://www.w3.org/2000/svg" version="1.1" viewBox="0 0 360 458">
  <!-- Generator: Adobe Illustrator 29.1.0, SVG Export Plug-In . SVG Version: 2.1.0 Build 142)  -->
  <defs>
    <style>
      .st0 {
        fill: #f3f3f3;
        opacity: .2;
      }
    </style>
  </defs>
  <path class="st0" d="M322.9,4.8c-31.1,6.7-49.6,36.2-49.6,78.3v267.5c0,7.3-4.8,13.7-11.7,15.7l-24.1,7.1h-1.6V85.9c0-51.5,41.7-79.5,85.4-85.8l1.6,4.7h0Z"/>
  <path class="st0" d="M192.5,154.9c-21.2,6.3-35.8,25.8-35.8,48v170.6h1.6l24.1-7.1c7-2.1,11.7-8.5,11.7-15.7v-195.7h-1.6,0Z"/>
  <path class="st0" d="M204.4,79.1c-1.6.6-3.2,1.3-4.7,2.1-1.5.8-2.9,1.6-4.1,2.3-1.2.7-1.8,1.1-1.8.9-5.6.9-10.3.7-14-.7-3.7-1.4-6.7-3.1-8.8-5.1-2.2-2-3.7-3.9-4.6-5.7-.9-1.8-1.3-2.8-1.3-2.9,1.7-.9,4.1-1.2,7-.9,2.5.2,5.8,1.1,9.8,2.5,3.1,1.1,6.8,2.9,11,5.4l5.9-3.2c-.6-1.2-1.7-2.9-3.3-4.9-2.2-2.6-4.9-4.6-8.3-5.8-3.4-1.2-6.9-1.8-10.6-1.5-3.7.2-7.2,1.3-10.6,3.1-3.4,1.8-6.3,4.5-8.7,7.9-2.3,3.3-4.4,6.3-6.3,8.9-1.9,2.6-3.1,5.1-3.4,7.5-.3,2.4.7,4.9,2.9,7.4,2.2,2.6,6.4,5.5,12.4,8.8-3.8,4.2-6.9,7.9-9.3,11.1-2.4,3.1-4.9,6.5-7.5,10.2-2.2,3.3-4,6.4-5.4,9.3l1.8,5.5c1.6-2.5,3.2-5,5-7.4,12.2-16.4,28.7-28.5,47.8-35.2.4-.2.7-.5,1.1-.8l9.1-19c-.3,0-.7.2-1.1.3h0Z"/>
  <path class="st0" d="M114.4,154.9c-21.2,6.3-35.8,25.8-35.8,48v172c0,42.1-18.5,71.6-49.6,78.3l1.6,4.7c43.7-6.3,85.4-34.2,85.4-85.8v-217.2h-1.6,0Z"/>
  <path class="st0" d="M87.3,4.8c-31.1,6.7-49.6,36.2-49.6,78.3v267.5c0,7.3-4.8,13.7-11.7,15.7l-24.1,7.1H.3V85.9C.3,34.3,42,6.4,85.7.1c0,0,1.6,4.7,1.6,4.7Z"/>
  <path class="st0" d="M264.6,453.2c31.1-6.7,49.6-36.2,49.6-78.3v-172c0-22.1,14.6-41.7,35.8-48h1.6v217.2c0,51.5-41.7,79.5-85.4,85.8l-1.6-4.7h0Z"/>
  <polygon class="st0" points="332.9 66 302.8 96.1 332.9 126.1 360 99 360 93.1 332.9 66"/>
</svg>