<?xml version="1.0" encoding="UTF-8"?>
<svg id="Layer_1" xmlns="http://www.w3.org/2000/svg" viewBox="0 0 208.86 21.53">
  <defs>
    <style>
      .cls-1 {
        fill: #fbb00c;
      }
    </style>
  </defs>
  <g>
    <path class="cls-1" d="M62.37,1.66h3.57v7.17h10.98V1.66h3.65v7.19h3.7V1.68h11.01v7.17h7.25v-3.52h-3.48V1.66h10.83v3.55h-3.57v7.29h-43.96V1.66ZM91.57,8.88v-3.53h-3.51v3.53h3.51Z"/>
    <path class="cls-1" d="M132.02,1.62h10.91v7.22h3.64V1.67h3.68v7.15h3.66V1.66h3.6v10.82h-25.49V1.62ZM139.19,8.88v-3.53h-3.45v3.53h3.45Z"/>
    <polygon class="cls-1" points="51.2 1.65 51.2 12.53 40.36 12.53 40.36 8.93 47.57 8.93 47.57 1.65 51.2 1.65"/>
    <polygon class="cls-1" points="120.88 1.67 120.88 12.51 110.01 12.51 110.01 8.92 117.18 8.92 117.18 1.67 120.88 1.67"/>
    <path class="cls-1" d="M124.64,12.51V1.68h3.59v10.83h-3.59Z"/>
    <path class="cls-1" d="M55.07,1.65h3.49v10.86h-3.49V1.65Z"/>
    <path class="cls-1" d="M164.86,12.51h-3.55V1.69h3.55v10.82Z"/>
    <path class="cls-1" d="M71.44,5.94l-2.49-2.49,2.49-2.49,2.49,2.49-2.49,2.49Z"/>
    <path class="cls-1" d="M17.27,20.57l-2.5-2.5,2.51-2.51,2.5,2.5-2.51,2.51Z"/>
    <path class="cls-1" d="M21.69,20.57l-2.51-2.51,2.51-2.51,2.51,2.51-2.51,2.51Z"/>
    <path class="cls-1" d="M203.43,15.55l2.48,2.48-2.5,2.5-2.48-2.48,2.5-2.5Z"/>
  </g>
  <path class="cls-1" d="M205.2,1.7v7.15h-3.61V1.69h-3.69v7.14h-3.64V1.66h-3.63v7.19h-3.67V1.65h-18.28v18.18h3.62v-7.28h7.38v-7.2h3.66v7.15h25.52V0l-3.66,1.7ZM175.89,8.88h-3.47v-3.53h3.47v3.53Z"/>
  <path class="cls-1" d="M29.34,1.65v3.64h3.51v3.6h-7.23V1.68h-3.71v7.16h-3.63V1.65h-3.65v7.2h-3.65V1.66H0v19.87l3.66-1.7h-.11s.1-.01.1-.01v-7.25h32.97v-7.34h3.56V1.65h-10.84ZM7.24,8.84h-3.49v-3.49h3.49v3.49Z"/>
</svg>