<?xml version="1.0" encoding="UTF-8"?>
<svg id="Layer_1" xmlns="http://www.w3.org/2000/svg" viewBox="0 0 121.73 150">
  <defs>
    <style>
      .cls-1 {
        fill: #fbb00a;
      }
    </style>
  </defs>
  <path class="cls-1" d="M119.68,33.27c-3.01,1.07-5.98,2.39-8.87,3.89-2.9,1.5-5.47,2.95-7.75,4.34-2.27,1.39-3.37,1.99-3.37,1.77-10.55,1.71-19.29,1.28-26.28-1.3-7.01-2.58-12.54-5.73-16.58-9.51-4.12-3.74-6.96-7.35-8.57-10.79-1.6-3.44-2.41-5.26-2.41-5.47,3.21-1.71,7.65-2.26,13.22-1.62,4.72.43,10.87,1.99,18.39,4.7,5.85,2.09,12.75,5.45,20.7,10.08l11.04-6.11c-1.07-2.35-3.16-5.45-6.26-9.31-4.08-4.93-9.31-8.57-15.62-10.96C80.97.64,74.35-.32,67.47.09c-6.88.43-13.54,2.39-19.96,5.79-6.43,3.44-11.92,8.38-16.43,14.83-4.29,6.22-8.29,11.82-11.92,16.75-3.65,4.93-5.73,9.64-6.3,14.17-.55,4.51,1.28,9.16,5.47,14.01,4.21,4.83,11.98,10.38,23.37,16.6-7.11,7.93-12.95,14.87-17.56,20.77-4.61,5.9-9.31,12.29-14.02,19.16-4.23,6.15-7.59,11.98-10.11,17.43l3.31,10.4c2.95-4.76,6.09-9.38,9.47-13.91,23.01-30.81,53.94-53.58,89.96-66.27.66-.43,1.33-.92,1.97-1.45l17.01-35.7c-.6.11-1.28.32-1.99.56h0l-.06.04Z"/>
</svg>