<svg xmlns="http://www.w3.org/2000/svg" id="Layer_1" data-name="Layer 1" viewBox="0 0 401.52 511"><path d="m360.08,5.27c-34.7,7.47-55.35,40.41-55.35,87.41v298.54c0,8.11-5.33,15.26-13.11,17.57l-26.86,7.97h-1.76V95.76c0-57.54,46.56-88.73,95.32-95.76l1.76,5.27Z"></path><path d="m214.57,172.76c-23.71,7.03-39.97,28.81-39.97,53.55v190.45h1.76l26.86-7.97c7.78-2.31,13.11-9.46,13.11-17.57v-218.46h-1.76Z"></path><path d="m216.33,172.76v218.46c0,8.11-5.33,15.26-13.11,17.57l-26.86,7.97h-1.76v-190.45c0-24.73,16.26-46.52,39.97-53.55h1.76Z"></path><path d="m227.83,88.16c-1.79.64-3.55,1.42-5.27,2.31-1.72.89-3.25,1.75-4.6,2.58s-2,1.18-2,1.05c-6.26,1.02-11.45.76-15.6-.77-4.16-1.53-7.44-3.41-9.85-5.65-2.44-2.22-4.13-4.36-5.09-6.41-.95-2.04-1.43-3.12-1.43-3.25,1.91-1.02,4.54-1.34,7.85-.96,2.8.26,6.45,1.18,10.92,2.79,3.47,1.24,7.57,3.24,12.29,5.98l6.55-3.63c-.64-1.4-1.88-3.24-3.72-5.52-2.42-2.93-5.53-5.09-9.28-6.51-3.76-1.4-7.69-1.97-11.78-1.72-4.09.26-8.04,1.42-11.86,3.44-3.82,2.04-7.08,4.98-9.76,8.81-2.55,3.69-4.92,7.02-7.08,9.95-2.17,2.93-3.41,5.73-3.74,8.42-.32,2.68.76,5.44,3.25,8.32,2.5,2.87,7.11,6.16,13.88,9.86-4.22,4.71-7.69,8.83-10.43,12.34-2.74,3.5-5.52,7.3-8.33,11.38-2.51,3.65-4.51,7.11-6,10.35l1.96,6.17c1.75-2.82,3.62-5.57,5.63-8.26,13.66-18.3,32.03-31.81,53.41-39.35.39-.26.79-.55,1.17-.86l10.1-21.2c-.36.07-.76.19-1.18.34Z"></path><path d="m127.37,172.76c-23.71,7.03-39.97,28.82-39.97,53.55v192c0,47-20.65,79.95-55.35,87.41l1.75,5.28c48.77-7.03,95.33-38.22,95.33-95.77v-242.47h-1.77Z"></path><path d="m97.08,5.27c-34.7,7.47-55.35,40.41-55.35,87.41v298.54c0,8.11-5.33,15.26-13.11,17.57l-26.86,7.97H0V95.76C0,38.22,46.56,7.03,95.32,0l1.76,5.27Z"></path><path d="m295.06,505.73c34.7-7.47,55.35-40.41,55.35-87.41v-191.99c0-24.73,16.26-46.52,39.97-53.56h0s1.76,0,1.76,0v242.48c0,57.54-46.56,88.73-95.32,95.76l-1.76-5.27Z"></path><polygon points="371.24 73.55 337.67 107.11 371.24 140.67 401.52 110.39 401.52 103.83 371.24 73.55"></polygon></svg>