<svg xmlns="http://www.w3.org/2000/svg" id="Layer_1" data-name="Layer 1" viewBox="0 0 424 422.79"><defs><style>.cls-1{fill:#f8f6eb}</style></defs><path d="m193.33 209 20.76-20.76L234.85 209l-20.76 20.761zm19.61 21.91c.19-.11.51-.47.32-.52l-.66.49.34.03Zm.25-1.87c-.42.14-1.07.47-1.5 1.08.69-.41.5-.15 1.3-.66.18.05.02.4-.21.59.19-.11.06.31.49.01.29-.59.11-.82-.47-.66.08-.17.28-.28.39-.37" class="cls-1"/><path d="M202.3 216.37v.15c.02-.06.02-.11 0-.15m-6.21-6.84c.05.03.17.02.25.01a.54.54 0 0 0-.25-.01m.87-.66s-.06.02-.11.02c.12 0 .18-.01.11-.02m5.34 7.5V216c-.21.17-.05.23 0 .37m7.88 12.43c.06.01.16-.01.25-.04-.05-.01-.11-.02-.16-.04l-.1.08Zm-4.2-9.67.06.05c.07-.04.17-.11.28-.18l-.34.13Zm2.56 2.38c-.03-.07-.54.39-.77.58.23-.17.37-.22.46-.21.1-.1.19-.21.32-.37m-4.23-4.26c.06-.07.13-.15.15-.2-.05.06-.11.13-.15.2m14.91 11.93-.08-.08c.03.06.06.1.08.08m-5.27.46.01-.07-.26-.28.25.35zm-15.49-21.04h-.01c.05.05.04.04.01 0m16.42-15.53c.23-.64.92-.19 1.07-1.02-.21.17-.92.59-1.07 1.02m-4.71 35.6s-.07-.05-.11-.09c.03.06.06.09.11.09m5.78-36.61v-.08.08m-12.65 11.12c-.09-.07-.18-.12-.26-.16.05.05.13.09.26.16m-4.61 3.22.16-.03a.227.227 0 0 0-.16.03m5.95-5.94c.08-.01.18.03.18-.11-.03-.01-.05-.02-.08-.03.04.08.04.16-.1.14m2.11-2.12c-.05-.02-.09-.04-.14-.06l-.04.1.18-.03Zm18.66 24.18a3.39 3.39 0 0 1-.53-.34c.37.31.19.75.53.34m-14.97 6c-.14.11-.21.15-.27.15l.09.04a.77.77 0 0 0 .18-.19m-9.55-31.98.41-.26a.99.99 0 0 0-.41.26m32.22 6.78.14.02s-.06-.05-.14-.02m-30.88-8.11c.23.11.39.15.53.15-.03-.05-.04-.1-.1-.17l-.43.02Z" class="cls-1"/><path d="M223.82 225.55c.34-.31-.48-.78-.77-1.22.2-.56.65.3 1.11.5.06-.41-.34-1.19-.14-1.33.12.09.19.09.29.26-.25-.76.72-.77.38-1.7.07.03.14.07.19.13-.36-.28-.7-.59-.92-.84.14-.16-.14-.67.34-.31-.11.07.05.25.15.42l-.03-.33c.74.46 0 .41.44.86.1-.5-.05-1.33.34-1.39.64.54-.33.72.5.94l-.57.13c1.19.66-.28.15.95.89.64-.29.21-.8.85-1.09-.22-.43-.52-.45-.74-.88.06-1.24 1.99.96 1.68-.3-.28-.51-.96-1.3-.23-1.25l.55.78c.51-.38-.71-1.22.2-1.23.18.34-.13.57.02.58.83.22-.16-.59.06-.83l.65.54c.37-.56.47-1.5.89-2.14.14.21.23.48.54.54.36-.95 1.47-1.33 2.46-1.62l-.26-.75c.06-.05.34.13.37.29.44-.06-.31-.34-.38-.66.11-.18.48.11.54.35 0-.43.08-.98.29-1.41.28-.49.82-1.02 1.51-1.16l.04.26c.91-.51-.76-1.32.39-1.53l.04.15c.94-.68 1.53-1.51 2.36-2.21-.36-.44-.55-.86-.43-1.32-.73 0-.88-.32-1.11-.64-.23-.32-.52-.62-1.28-.37.03-.98.48-.9-.24-2.31-.28-.36-1.14.14-1.42.07l.53-.53-.84.28.49-.79-.34-.05c.05.11-.07.4-.23.55-.55-.06-.37-1.11-.11-1.4l-1.16-.26c.23-.2.42-.15.66-.19-.93.16.49-.64-.36-.49-.07.17-.34.3-.46.39.15-.5-.24-.89-.68-1.05l.42-.32c-.43-.62-1.29-.94-1.88-1.55.04.38-.65.97-.88.86l.49-.64c-.46.24-.02.4-.69.59-.16-.29.5-.78.8-.85l-.47-.07c.15-.18.31-.21.54-.4-.47.23.1-1.04-.68-.59l.16-.18c-.59-.6-1.06-.68-1.57-1.13-.5.48-.58.18-1.12.42-.2-.51-.21-1.29-.69-1.67-.54-.06-.5.32-.92.48.42-.47-.05-.86.49-.95-.58-.44-.74-.57-1.76-.86-.11.24-.11.4-.3.52-.2-.05-.08-.46.14-.66h.08c-1.4-.07-.4-3-1.91-2.66h.07l-1.09-.14c-.2-.35.51-.16.57-.65-1.39.1-.92-1.13-1.95-1.17.41-.9-.43-1.69-1.19-2.28-.78-.62-1.52-1.08-1.93-2.32l-.03.58c-.35.25-.26-.61-.46-.95-.02.47.22.77.02.91a7.71 7.71 0 0 1-1.13-.93c-.87.88-1.79 1.5-2.86 2.21l-1.67 1.12-.88.64c-.25.17-.36.21-.53.33-.55.38 1.32 1.85.01 1.7l-.4-.74c-.25 1.62-1.93 1.88-2.25 3.37-.08-.18-.25-.35-.16-.44-.6-.22-.73.7-.39 1.04-.19.11-.35-.28-.6-.36-.43-.05.04 1.02-.47.71-.08-.05-.08-.19-.08-.26.07.33-.64.54-.03.9-.57.11-.44.87-1 .86.35.71-.85.32-.15 1.13-.75-.8-1.23-.03-1.08.55-.16-.31-.43-.05-.68-.47-.23.25-.31.64.14.98-1.4-.48-.16 1.67-1.62.73-.31 1.15-.71 2.12-1.19 2.95-.75-.8.66-.8-.19-1.6-.31.95 0 1.98-.8 2.41-.26.05-.24-.43-.33-.62-.3.95-1.27 1.14-1.41 2.12-.07-.07-.08-.21-.09-.33-.08.14-.37.15 0 .49v-.2c.7.34.66 1.5.9 1.8-.83-1.21-.8.3-1.79-1.29 0 .15.07.4.33.62-.18.03-.35-.07-.51-.44-.35.73.21.92-.31 1.42-.2-.14-.17-.31-.34-.54.08.59.26 1.08-.36 1.41-.12-.09-.35-.12-.21-.25-.79.89.13 1.65-1.16 2.3-1.15-.34-.72.23-2.03.25l-.05.22.49.28.43-.2c.39.41 1.57.66 1.5 1.01l-.75-.22.93.7c0-.17 0-.33.02-.48.91.24 1.34-.29 1.45.18-.18-.05.28.29-.11.67.47.06.9.06.92.4-.2.21-.97.46-1.11.59.87-.21 1.09.79 1.9.44-.2.06-.56.39-.6.49.2-.1.39-.19.57-.31-.02.26-.06.35-.36.6.3.45.71-.94.79-.15-.07 0-.12.08-.25.07.25.62 1.13.58 1.32 1.21-.53.76-.52-.2-.93.49.71.47 2 .43 2.41 1.15l-.04-.18c1.01-.84-.02.88.7.73-.15 0-.6.42-.49.34.24.53 1.03.57 1.9.87l-.31.16c.02.44.49.73.62 1.08.31-.16.41.02.67-.41-.57 2.11 2.18.74 1.74 2.54-.08-.08-.4.01-.34.07l.79.36c.36-.44.17-.32.36-.75.31-.16.66-.18.79-.04-.52.01-.64.65-.74.98.1-.15.28-.24.39-.38-.41 1.02.85-.75.78.14l-.23.19c.26.05.68-.08.78.14-.39.53-.38.05-.76.42.25.2 1.33-.41 1.08.25-.22.03-.37-.11-.59-.08-.32.77-.16.67-.07.92v-.03l.15.65.05-.25c1.49-.91.8.38 1.99-.02-1.13.37-.5.37-1.05.87-.04.24-.05.56-.24.67.6-.24-.02.65.86.29-.16.18.18.21-.29.59.37.12.23-.35.47-.54.95-.2.18 1.58 1.5 1.32.78.14 1.44-.35 2.16-.2-.13.41-.74.49-.74.49-.01.49.21.61.62.65-.19.09-.28.28-.39.53.22.13.73-.5.71-.02-.22.15-.57.4-.85.51.36.05.88-.06 1.25 0-.24.35-.58.32-.85.43.37.11.9.36 1.44-.03v-.32c.12.06-.35.44-.5.47-.57.16-.14-.47.02-.65l.26.04c.83-1.14-.78-.46-1.03-.82l.85-.59-.92.28c.13-.25.48-.7.74-.66.14-.57-.46.06-.24-.52.04-.08.08-.12.13-.12h-.42c.19-.12.47-.55.5-.32.03-.8-1.16-.08-.76-.77h.07c-.78-.31-.58.47-1.61.68l1.04-1.58-.58.48c-.04-.07-.11-.22.13-.41-.57.16-.2.26-.66.49.21-.75-.96-.51-.18-1.41-.5.3-.05.56-.62.55.83-.98-.49-.17-.31-.83.54-.39.52.08.7-.58-.94.65-.31-.65-.67-.7-.64.61-.71-.19-1.26-.32.23-.19-.31-1.01-.4-1.55l.12-.11c-.7.58-.91.13-1.28.02.39-.37.58-.48.88-.52l-.22-.22c-.26.15-.43.18-.66.11l.53-.41c-.33-.28-1.16-.05-1.24-.76-.47.42-.92 1.55-1.63 1.43.22-.25.61-.68.83-.67-.07 0-.33.07-.3-.09l.57-.24c0-.35-.43.24-.54.06.35-.34.14-.35.43-.6.06.01-.02.28.17.19-.1-.22-.08-.61.11-.94-.18.21-.46.47-.62.39-.33-.28.31-.52.31-.87-.31.17-.25-.28-.77.23-.08-.09.14-.35.24-.52-.38.06-.79-.67-1.16.05v.07h-.04c-1.02-.01-.77-1.35-1.5-1.64l.17-.17c-.5-.12-.78-.56-1.37-.41-.09-.09.1-.53.34-.69-.36-.11-.58.06-.64-.56.53-.06.19-.34.46.02-.15-.44.05-.78-.73-.65.54-.33.32-.77.04-.78l-.1.52c-.23-.1-.33-.28-.43-.46l.65-.5c.04-.66-.53-.65-1.03-.67-.51-.02-.96-.12-.37-.7-.53.28-.16.41-.72.79-.14-.3.73-1.08.73-1.08.33-.31-1.29.38-1.22.02-.3.12-1.07.43-1.65.24-.15-.3 1.22-.51 1.59-.47.06.03-.03.06-.15.08.18.03.37.05.68-.08l-.35.05c.28-.14.08-.29.72-.32-.41-.03-.65.02-.76.12.26-.16.05-.2-.03-.3.03-.04.11-.07.26-.12-.23.01-.73.02-.7-.01.75-.23-.59-.18-.49-.47.66-.03 1.21.29.97 0 .44-.02.86.22 1.11.31-.5-.3.57-.04.66.01l.2.13c-.13-.06-.11-.09-.1-.09l-.55-.27c.13.02.14 0 .35.14-.29-.24-.88-.49-1.22-.88.31.11 0-.46.58.05-.37.01.58.51.58.69-.06-.06-.03-.1.06-.04.06.05.12.11.15.15.23.24.25-.08.05-.31-.16-.26-.38-.59-.16-.8.25.36.69.48.7.34-.19.17-.6-.42-.68-.83.53-.04.14-.49.31-.6l-.27.05c-.25-.36-.07-.45.03-.75.25.22-.02.34.16.38-.33-.76 1.05.06 1-.6.34.06.58.56.85.58-.05-.74.79.04.83-.65-.52-.31-.43-.18-.58-.84l-.31.88-.22-.98c-.18.18-.12.64-.29.68-.16-.52-.07-.4-.5-.66.86.38.12-.85.82-.71l1.02 1.04c.88.03.22-1.28 1.03-1.57h-.35c-.33-.49.29-.4.3-.74.33.36.56.37.85.51-.26-.24.42-.38-.21-1.11l.7.2c.62-.25-.47-1.47.07-1.79.24.5.68.55.66 1.1.15-.14.34-.2.11-.44.3.14-.06-.86.39-.66-.1-.21-.43-.59-.24-.72.08.05.17.17.17.17-.17-.17.02-.48-.5-.72 1.5.62 1.14-1.3 2.45-.77.19-.42.46-.9.72-1.21.07.12.17.17.07.18.71-.06-.74-1.22.05-1.3.78.33.06.53.41.6 1.19 1.06.38-.69 1.33-.33v.14c.6.15.13-.98.58-1.27 0 0 .08.12.17.17-.32-.83-.03-1.5.17-2.01.33.55.06.39.58.77.1-.22-.76-.68-.57-1.12.35.14.79.12 1.29.56l-.28.33c.77.47.37-.41.64-.45l.25.29c.37-.54-.28-1.26.22-1.66l-.23-.17c-.42-.92.51.24.26-.51l.6.76c-.06-.28-.08-1.24.15-1.73.07.93.01 1.51.14 1.99.08-.07.21-.32.12-.89-.01.15.03.43-.06.32-.19-.88-.04-1.56.24-1.82.21 1.51.4 1.09.58 1.09.1.2.18.51.15 1.2.15-.35.3-.1.35.17.06.28.04.55.17.6.78-1.27.1.04 1.06-1.12.17.04.2.12.16.2l-.12 1.14c-.19.43-.39.07-.61.33.29.45-.3.6-.33 1.13.33-.42.67-.41.74-.05l.18-.79c1.09-.04-.43 1.34.65 1.31l-.5.16c.47.07.98 1.01 2.1.41-.07.17-.3.53-.49.49.51.77 2.33.53 2.31 1.55l-.31.21c.19.04.7-.28.58.14-.12.09-.31.2-.26.28.15-.02.77-.14.78.18l-.43.15c.3.97 1.67.25 2.38.6-.76.76-.52 1.5-.39 1.87l-.12.1c.64.83 1.86.61 2.84 1-.4 1.24 1.08 1.77 1.29 2.9.03-.24.61-.57.8-.53.01.31.96-.09.24.58l-.04-.07c-.56.81-.05.95.18 1.22l.95-.87c-.67 1.99 2.23 1.25 1.41 2.81.39-.06.35-.1.7-.2l-.56.41c-.05.2-.14.24.15.29l-.56.14c-.07 0 2.36-.46 2.61-.25l-1.28.18c.06.05 0 .12-.08.16-.4.12-.69.08-.05.37-.17-.05-.51-.14-.54-.17-.12.08-.84-.14.5.53-.87-.44-.22.09-.11.55l-.48-.49c.51.72.57 1 .43 1.48-.15.02-.47-.32-.23-.3-.52.01.24.67-.34.74l-.19-.43c-.31.24-.13.38.08.9.01.37-.66.4-1.13.01.22.31.43.81.14.85-.19-.14-.22-.3-.24-.38-.8.14-.14 1.26-.93 1.1-.17-.15-.26-.21-.34-.23.38-.36.7-.62.71-.57-.44-.45-.83-.22-1.2-1.07.1.57.41 1.71-.1 1.8-.05-.03-.11-.06-.19-.12l-.02-.08c-.11.03-.13.13-.11.26-.17.02-.29.02-.38.11-.4-.34-.54.15-.71.28.5.48.22.59.82.82-.06-.01-.03-.1.04-.21.01-.03.03-.07.02-.12l.03.05c.08-.11.2-.24.34-.4.13.37.21.7-.22.59.22.39.47.8.57 1-.88-.48-1.64-.44-2.12-.8-.18.72-.89 1.25-.26 2.46-.01.24-.41-.12-.6-.21-.02-.17.08-.24-.01-.41-.02.5-.68.86-.1 1.56-.61.04-.4-.77-.75-.21l-.14-.25c-1.91-.14.19 3.06-2.1 2.73.15.01.22.02.34.11-1.69.55-1.76 2.85-3.78 3.04-.5.13-.13.57-.01 1.07l-.58-.45.28.93c-.02.91-2.09-.48-1.84.94l.42.28c-.28.15-.46.88-.83.44.04.08.3.43.03.33l-.28-.26-.05.98c-.6.2-1.03-1.14-1.66-.61-.12.32.17 1.42.43 1.51.11-.07.4-.05.68.21l-.05.35c.77.84 1.44 1.82 2.49 1.9l-.15-.84.5.28-.26.32c.54.2.32-.22.2-.56.24.18.43.28.58.29l-.43-1.1c.35.26.47.77.87.72-.2-.52-.86-.56-.83-1.05.52.2.77.55.66.04.23.18.32.35.34.52-.07-.41.35-.55 0-1.07.62.28.47-.7 1.21.08-.13-.23-.3-.9-.17-1.09.62 1.21.64-.53 1.54.53-.6-1.04.4-1.13.33-1.96.04.08.13.25.05.24.29-.14.59.04.88.06-.65-.7-.48-1.19-.72-1.78.92.39.65.95 1.35 1.49-.56-.53-.11-1-.65-1.37.6.21.37.03 1.03.49-.82-.88.04-.33-.32-1.02.71.14.87.73.93.15.4.12.42.7.42.7m6.02-8.98h.01c-.05.08-.1.15-.13.19.02-.04.06-.1.12-.19m.62-.64c-.09.05-.19.15-.3.25-.19-.15-.34-.35-.26-.4.07.15.33.1.56.15m-4.7-2.04c.03-.17.16-.11.28-.02-.04.05-.08.13-.12.23l.04.07c-.08-.11-.16-.2-.2-.29" class="cls-1"/><path d="M226.22 214.74s.01.05-.01.07c.07.02.13.04.17.05l-.12-.19-.04.06Zm-23.91 1.8v-.02s-.02.05-.04.09c.02-.03.03-.05.04-.07m31.75-12.76-.12.13.17-.05-.05-.08zm-29.95 17.89a.51.51 0 0 0-.07.17c.02-.03.05-.1.07-.17m1.38 1.61.04.38c0-.19-.02-.3-.04-.38m.91 1.39c.1-.07.17-.14.23-.19l-.23.19Zm-11.03-21.44s.02-.04.02-.06c.01-.2-.02-.09-.02.06m-1.57 7.7c-.2-.02-.4-.05-.57-.11.07.15.17.25.57.11m7.06-14.36.01.01.03-.04-.04.03zm-7.96 13.91c-.02.17.13.28.33.34-.06-.12-.11-.26-.33-.34m18.26 19.39.03.07s.06-.05.08-.07h-.12Zm.12 0h.12s-.05-.04-.12 0m.37.02h-.25s.08.11.25 0m-1.79-1.77-.19.16s.11-.07.19-.16m-.51-.41c.07.15-.09.66.17.7l.15-.13c-.33.19.08-.76-.32-.57m.25-4.11.24.53c.13-.25.29-.6.51-.47.07-1.05-.32.52-.75-.06m-.93-1.47c.3.12.28-.27.39-.37-.31.04-.38.05-.39.37m-8.68-8.69.47-.42c-.22-.09-.18.17-.47.42m-3.95.63-.11.44.47-.34-.36-.1zm2.18-4.13h.14c-.14-.02-.32-.09-.37-.04.03-.03.13 0 .23.04m8.6-10.79-.59-.5c-.01.21.58.85.59.5m5.74-6.85c.32.23.54.36.35.01-.1.02-.38-.13-.35-.01m15.46 14.18-.3.06.39.08-.09-.14zm-146.39-2.24c-.37-.3-1.25-.18-1.09.59l1.46.6-.37-1.2Zm-2.83 5.08c.7.92 1.93 1.95 3.29 1.36-1.4-.88-.8-1.09-2.47-2.06-.16-.77.5-1.33 1.04-1.2-.37-.28.35-1.17-.57-1.61-1.15.95-1.23 2.24-.31 3.58-.34.29-.71 0-.98-.06m18.28 73.06-.11-.52c-.01.17.03.34.11.52m31.21 35.9c-.32-.19-.53-.17-.62-.07.33.13.61.22.62.07m5.67 6.18-.34-.37c.07.22.18.39.34.37m-36.88-42.08.28 1.33c.44-.18-.04-.75-.28-1.33m-14.4-62.89c-.09-.25-.24-.45-.44-.64.08.2.16.4.21.61.07.01.15.01.23.02m3.61 44.75-.15-.36c-.2-.04-.42-.06-.68-.07l.83.43Zm-5.68-15.26c.05.37 1.29.14 1.85.12-.55-.05-.87-.24-1.05-.52-.23.05-.49.18-.8.4m-2.7-25.54-.21-.43c.06.12.13.31.21.43m13.16 51.43c-.15.11-.26.24-.33.34.14-.07.24-.19.33-.34m224.48-142.26c.07-.04.12-.09.18-.14-.16.01-.24.04-.18.14m-7.09-17.74.22.14c.18-.14.37-.29.53-.44l-.75.31ZM146.08 333.86l-.05-.05c-.41-.08-.2.01.05.05m134.52-1.36c-1.89-.18 1.5-2.55-1.13-2.43.43.31-.91 2.8 1.13 2.43M82.54 219.91c.03.21.06.41.06.64.02-.3 0-.49-.06-.64m196.93 110.15-.26.01c.11 0 .17-.01.26-.01m-100.34 15.76c-.02-.23-.12-.42-.21-.61-.02.13.02.3.21.61m-23.9-10.29.51.42c-.18-.21-.35-.34-.51-.42m37.48 11.19c.33.15.42.33.92.23-.04-.06-.07-.12-.13-.17-.19.14-.43.19-.79-.06m13.89 1.35c-.07-.09-.16-.18-.24-.26-.14.01-.31.03-.44.04l.69.22Zm128.21-181.03c.23-.39.54-.69.86-.95-.77.49-1.7-1.21-.86.95M81.98 219.55c.32.05.49.16.57.36l-.11-.45c-.19-.02-.36-.02-.47.08m112.71 117.5 2.02.48c-.56-.2-1.29-.37-2.02-.48m138.43-78.17.02-.51c-.1.17-.12.34-.02.51M202.8 338.02c.33.46.71.73 1.1.91.1-.09.19-.16.26-.31l-1.37-.6Zm132.88-171.93h-.01.01Z" class="cls-1"/><path d="M327.67 154.67c.78 1.79 1.83.14 2.87.12 1.42 1.96-.64 1.5-1.07 2.58 1.01 1.13 2.87 1.57 3.28 2.59-.21.18-.21.41-.64.32 1.99.87 1.67 4.3 3.86 5.44-.1.18-.2.29-.31.36.68-.55 1.45-.89 2.03-1.03.33.85 1.53 1.25.64 1.93-.16-.54-.58-.43-.98-.57l.76.74c-1.19 1.31-.93-1.05-2.01-.67 1.07 1.56 3.01 3.21 3.06 4.68-1.34.72-1.58-2.95-2.23-.78l-.17-2.22c-1.72 2.32-.28-1.29-2.19.95.47 2.8 1.88 2.71 2.18 5.55.95.39 1.14-.54 2.11-.15 2.42 3.58-2.93 4.03-.28 6.4 1.15.51 3.09.39 2.61 2.68l-1.84-.35c.47 2.69 2.87 1.03 2.14 4.11-.73-.39-.86-2.04-1-1.59-1.07 2.09 1.13 1.13 1.34 2.56l-1.45.55c.64 2.84 2.21 5.89 2.91 9.1-.46-.14-.97-.65-1.38.16.91 4.01.28 8.74-.53 12.62l1.23 1.51c-.03.35-.62.64-.86.25-.57 1.51.83.09 1.3.85.05.88-.8 1.13-1.16.56.49 1.37.98 3.32 1.18 5.3.2 1.98.11 3.97-.88 5.3l-.3-.59c-.85 2.13 2.29 2.82.78 4.73l-.17-.43c-.65 2.37-.8 4.93-1.24 7.3-.59 2.35-1.32 4.52-2.71 6.08 1.65 1.15-1.94 4.4.51 5.43-2.05 2.29-2.32 1.38-4.4 4.75-.46.92 1.04 1.98.87 3.3l-1.29-.44.77 2.15-1.84.29-.06 1.26c.23-.42.91-.73 1.25-.52.06 2.06-2.74 3.83-3.33 3.61l-.8 4.49c-.47-.33-.32-1.08-.39-1.76.28 2.73-1.49-.23-1.24 2.28.4-.13.68.5.9.67-1.25.59-2.12 2.89-2.83 4.56l-.66-.74c-1.87 2.68-3.1 6.13-4.99 9.29 1.04-.89 2.27.24 1.84 1.27l-1.43-.41c.39 1.1 1.03-.69 1.22 1.16-.95 1.05-1.92-.16-1.84-1.05l-.58 1.62c-.41-.16-.37-.6-.76-1 .33 1.07-2.89 1.47-2.2 3.17l-.4-.18c-2.19 2.91-2.7 4.62-4.51 6.99.92.84-.07 1.54.08 2.86-1.8 1.4-4.17 2.55-5.88 4.59-.8 1.82.4 1.14.36 2.29-.91-.69-2.61 1.37-2.27-.24-2.19 2.33-2.85 2.9-5.23 6.32.64.05 1.14-.13 1.21.34-.42.64-1.57.77-1.85.29l.07-.21c-2.19 4.62-10.24 3.93-11.66 7.99l.09-.22-2.32 3.25c-1.57.78.39-1.28-1.06-1.16-2.47 3.65-5.62 3-7.84 5.78-3.67-1.43-8.08 4.26-12.09 3.84l.5.65c-.51 1.08-1.16.03-1.82.15.32.53 1.15.24.82.87-6.71 3.78-15.12 4.39-22.73 5.26-2.77.39-.7 4.56-4.63 3.24l.73-1.59c-5.39 2.48-11.52 1.85-17.03 3.35.32-.35.31-.79.86-.82-1.24-1.01-4.37.16-4.38 1.04-.88-.06-.22-.78-.76-1.2-1.19-.56-2.97 1.51-3.6.36-.11-.17.33-.33.55-.4-.78.49-3.59-.31-2.88.96-2.09-.69-4.08.35-5.72-.46-1.21 1.31-3.56-.78-4.08 1.02.34-1.98-3.48-2.14-4.94-1.4.53-.54-1.06-.78-.42-1.55-1.49-.19-2.93-.02-2.85 1.04-2.35-2.66-5.96.89-6.85-2.52-4.61-.05-8.98-.15-12.97-1.25.77-1.85 4.35 1.32 4.8-.76-3.85-.47-6.55.4-10.06-1.33-.85-.58.85-.62 1.28-.84-4.02-.35-6.81-3.04-10.42-3.44.09-.16.52-.19.9-.18-.65-.23-1.3-.93-1.63-.07l.71.05c.43 1.66-3.67 1.34-4.12 1.91 2.23-1.84-2.85-2.04.35-4.19-.49-.04-1.2.11-1.39.69-.5-.5-.51-.92.4-1.19-2.33-.8-2.05.49-3.96-.67.22-.38.7-.3 1.14-.64-1.38.18-2.79.34-4.22-.94.23-.17.22-.57.7-.29-2.79-1.56-6.08-.73-8.44-3.65 1.94-.95-.61-1.24.2-2.7l-1.82-.72.14 1.1c-1.32-1.01-3.25-.92-4.09-2.21l1.43.19-2.73-1.6 1.05 1.55c-1.91-.34-1.14 1.76-2.69.05.24.07-.1-.18-.51-.62-.37-.48-.8-1.14-.82-1.82-.95-.15-1.97-.32-2.63-1.47.11-.61 1.4-1.21 1.48-1.61-1.54.49-3.17-2.34-4.95-1.97.5-.01 1.1-.64 1.14-.85l-1.29.36c-.33-.78-.3-.98.29-1.41-1.6-1.72-.91 2.02-2.35-.51.22.08.26-.11.72.07-1.72-2.22-4.28-3.4-5.67-5.62.72-1.67 1.84 1.35 2.29-.23-1.41-1.2-2.96-2.35-4.52-3.53-1.56-1.16-3.04-2.41-3.94-3.98l.25.65c-2.17 1.05-.7-2.85-2.68-3.61.41.25 1.41-.31 1.12-.25-1.18-2.16-3.32-3.74-6.04-6.44l.75.06c-.3-1.52-1.71-3.42-2.29-4.89-.76-.08-1.14-.9-1.62.01.28-2.95-1.13-4.74-2.69-6.47-1.49-1.73-2.93-3.49-2.54-6.01.22.47 1 .88.83.52-.7-1.01-1.37-2.04-1.97-3.1-.84.68-.39.69-.84 1.71-.74-.18-1.57-.96-1.92-1.82 1.26 1.28 1.51-.65 1.79-1.51-.25.23-.67.14-.94.31.97-2.45-2.04.48-1.89-2.42l.56-.06c-.61-.81-1.56-1.43-1.78-2.49.97-.82.87.8 1.81.53-.54-1.37-3.09-2.03-2.41-3.68.52.49.83 1.34 1.34 1.83.84-1.83.46-1.86.31-2.95v.11c-.1-.84-.07-1.72-.13-2.56l-.18.72c-3.47-.88-1.63-3.43-4.22-5.32 2.48 1.87 1.16.11 2.51-.05.22-.71.4-1.74.84-1.57-1.32-.88.39-2.07-1.55-3.31.41-.17-.24-1.23.88-1.2-.68-1.4-.66.5-1.22.5-1.94-2.02.69-5.71-1.82-8.69-1.2-2.76-2.77-3.12-3.79-5.79.62-1 1.64.59 1.64.59.51-1.55.31-2.64-.31-3.99.4.25.7-.06 1.15-.53-.21-1.1-1.64-.64-1.12-2.15.51.22 1.3.51 1.83 1.01-.54-1.27-1.34-2.53-1.79-3.89.75-.38 1.18.78 1.68 1.24-.39-1.5-.8-3.92-2.01-4.38l-.4 1c-.07-.56 1.02-.31 1.25.11.98 1.28-.36 1.9-.79 1.99l-.31-.96c-2.5 1.09.49 3.93.55 5.87l-1.92-.7 1.7 1.92c-.46.47-1.45.85-1.81-.11-.79 1.5.76 1.2-.16 2.52-.15.15-.24.09-.33-.02l.67 1.33c-.41-.22-1.28.38-1.08-.52-.78 2.65 1.9 3.87.61 5l-.14-.19c1.08 3.38 1.38.16 3.32 2.48l-3 2.28 1.41.11c.01.36.04 1.08-.52 1.05 1.16 1.15.54-.33 1.55.28-.94 1.95 1.48 4.53-.51 5.38 1.15.38.4-1.78 1.52-.15-2.15 1.04.88 1.98.21 3.77-1.28-.17-1.02-1.81-1.68.01 2.15.43.38 3.11 1.14 4.32 1.6-.39 1.4 2.65 2.68 4.59-.55.03.52 4.3.74 6.48l-.28.04c1.68-.2 2.21 1.91 3.11 3.23-.92.33-1.39.21-2.12-.42l.57 1.39c.61.12 1.05.44 1.59 1.26l-1.27.14c.87 1.82 3 3.03 3.35 5.7 1.07-.38 2-3.19 3.8-1.14-.51.36-1.41.92-1.94.4.18.17.79.51.78 1.03l-1.4-.49c.08 1.25 1.03.16 1.38 1.02-.79.38-.24.88-.92 1.08-.19-.17-.06-.87-.53-1.03.35.98.49 2.34.1 3.03.4-.32 1.05-.55 1.51.06.98 1.71-.61 1.1-.46 2.35.76.13.8 1.56 1.97.93.3.5-.18.9-.37 1.27 1.04.59 2.64 4.03 3.23 2.31l-.06-.28.14.12c2.76 2.18 3.2 6.19 5.54 8.64l-.36.25c1.6 1.28 2.91 3.35 4.51 3.87.35.47.21 1.59-.34 1.73 1.24.95 1.71.75 2.58 2.89-1.57-.67-.17.85-1.44-.83.98 1.75.76 2.56 3.04 3.39-1.33.21-.05 2.07.87 2.52l-.37-1.56c.86.66 1.42 1.4 1.99 2.15l-1.43.64c1.49 4.35 7.37 3.02 7.6 7.27 1.49-.03-1.15-2.02.39-2.26 1.23 1.39 1.27 4.28 1.71 4.69 1.4 2.36 3.19-.02 4.83 2.18.07-.64.69-1.87 2.59-1.1 1.36 1.24.47 3.09-.74 2.72-.39-.23-.47-.49-.34-.61-.6-.21-1.39-.51-1.14.38l.52-.26c.41.97 2.54 2.47 1.52 2.79 1.46.45 1.02-.33.34-1.17 1.48 2.04 3.02 2.26 4.72 4.14-.15-.47-.08-1.19.23-.95 2.55 2.69 1.85.13 3.95 1.38.75 1.38-1.48 1.34 1.02 2.04 1.01 1.23-.48 1.34-1.24 1.4 2.51.31 3.32 2.74 4.37 3.58l-1.26-.24c.75.15 1.26.46 1.78.76l-.06-1.26c.52.52 1.04.83.8 1.21.97-.23.4-1.81 2.1-1.91.54.94 2.71.93 2.33 2.33-2.31-1.91-.39 1.41-2.66.33.5.11 1.01.41 1.52.93.02.19-.22.2-.42.18 1.87 2.55 1.86-.71 4.48.57-.69.55-.05 1.63.47 1.68-1.08-.52.07-1.42 1.31-1.51 1.43 1.34 2.04.44 2.89.92l-.89-.73c.68-.55 1.47-.07 2.74.24-.15.6-1.24-.11-.93.33 1.86-.67 2.37 2.69 4.57 2.68.65.87-.49 1.42.15 2.04 2.52-.19 1.95 1.83 4.52 1.84-.3-1.23-.49-1.02 1.44-1.44l-3.95-.59 2.91-.62c-1.1-.39-2.57-.19-3.18-.59 1.44-.41 1.22-.21 1.02-1.22.94 2.02 3.29.18 4.66 1.79l-.91 2.47c1.13 1.02 2.43 1.11 3.83 1.18 1.4.09 2.9.11 4.58.82l-1.01-.72c.76-.89 2.21.39 3.46.26-.33.82.31 1.3.67 1.95.1-.65 2.58.7 3.3-.93l1.31 1.51c1.39.57 2.33.16 3.25-.29.93-.51 1.84-1.06 3.2-.71-1.01.81.16 1.62-1.83 2.01.93.15 1.75.43 1.86-.17.47.62 2.76-.79 3.49.15.44-.32.7-1.22 1.73-1 .08.19-.06.43-.06.43.06-.43 1.69-.35.91-1.45 1.25 1.51 3.24 1.93 5.21 1.86 1.96-.01 3.86-.06 5.06 1.17 2.06-.2 4.52-.37 6.37-.35-.12.26-.01.45-.36.34 2.56.83 1.56-2.56 4.44-1.76 1.51 1.35-1.51.85-.58 1.33.49 2.87 3.49-.56 5.54 1.03l-.47.2c1.58.86 3.61-1.18 6.03-1.28 0 0-.08.26.03.43 1.51-1.7 4.55-2.64 6.8-3.37-.54 1.22-.96.74-.35 1.81 1.02-.31-.57-1.78 1.43-2.39.76.51 2.35.83 2.77 2l-1.96.36c1.28 1.41 2.55-.41 3.63-.33v.71c2.94-.94 2.6-2.66 5.8-3.31l-.46-.42c1.3-2.11 1.68.59 3.08-1.08l.98 1.57c1.05-.66 3.55-2.59 5.39-3.68-.71 1.66-2.87 3.09-4.18 4.13.57-.15 1.53-.39 2.39-.78.84-.44 1.57-.96 1.73-1.48-.39.32-.83.93-1.34.83.96-1.8 2.5-3.06 4.69-3.79.72 3.32 6-1.11 8.54.64 3.28-2.92 7.75-2.96 12.08-5.27-2.73-1.5 1.2-.77-.36-3.04.88-.72 1.27-.89 1.44-.78l3.73-.32c1.1.26-.61 1.06-.22 1.53 2.24-1.09 1.48.47 3.28.23-.79-.66.03-1.63 1.45-2.04l-2.38-.04c2.18-3.04 3.89.49 6-2.71l-.42 1.37c1.18-1.48 5.43-3.96 5.54-6.75.44.06 1.23.41.71 1.04 1.8-1.2 3.49-2.94 4.87-4.83 1.4-1.86 2.75-3.54 4.44-4.15l.21.71c.47-.68.18-1.85 1.38-2.03.16.23.22.7.52.49.16-.45.77-2.28 1.83-2.71l-.16 1.14c1.91-1.05 2.69-2.57 3.24-4.14.57-1.57.94-3.15 1.94-4.59 1.44 1.33 4.14-.71 5.49-1.74l.17.22c1.82-1.68 2.59-3.76 3.42-5.69.78-1.96 1.43-3.94 2.43-5.96 3.61-.92 5.77-7.52 9.16-10.78-.66.42-1.27-.85-1.04-1.62.91-.72.24-3.15 1.73-2.19l-.19.33c1.89.09 2.41-2.12 3.18-3.64l-2-1.27c2.47-1.26 3.42-4.07 4.2-6.61.67-2.59.98-5 2.86-5.62-.2-1.21.24-2.46.03-3.64l1.18.46c1.28-2.72 2.02-4.07 2.53-7.75l.69.96c.58-2.02-2.88-3.47-2.51-5.3l1.96-.13c.41-1.75 1.24-3.42 1.86-5.16.48-1.75.71-3.57.13-5.45.26.09.78.29.78.88.29-1.67 2.2-6.39-.46-6.08 1.69.16.74-3.67-.02-5.65l1.22.39c-1.49-1.76-1.93-1.83-2.25-4.11.19-.53 1.02-.42.66.28.74-1.77-1.1-1.44-.34-3.58l.75.83c.18-1.84-.24-1.7-1.12-2.72-.37-1.15.32-3.46 1.42-3.76-.7-.24-1.66-1.23-1.39-2.31.41-.17.7.22.84.41.69-3.12-1.66-4.49-.55-6.67.41-.07.6-.23.72-.42.1 2.46.12 4.44.02 4.26 1.14-.04 1.25-2.06 2.9-.55-.95-1.6-2.92-4.18-2.52-6.16.1-.09.19-.2.36-.29l.15.18c.05-.45-.11-.84-.35-1.2.1-.64.18-1.04.11-1.64.91-.34.18-2.34.08-3.33-1.23.25-1.22-1.06-2.06.3.06-.17.18.16.32.81.06.14.11.32.19.4l-.12-.05c.12.64.26 1.47.43 2.42-.74-.71-1.39-1.43-.86-2.6-.87-.39-1.77-.83-2.19-1.07 1.53-1.57 2.1-4.31 3.09-4.87-.5-1.45-1-3.19-1.74-4.71-.71-1.52-1.58-2.87-2.94-3.5-.49-.75.42-1.11.71-1.51.35.42.44 1.01.84 1.19-.98-1.52-1.43-4.89-3.1-4.83.17-2.29 1.8.74.71-2.02l.61.23c.29-3.15-1.5-5.12-3.21-7.09-1.76-1.98-3.18-4.04-3.09-7.58 0 .49.01.72-.21.91-.86-3.61-2.77-6.92-4.57-10.22-2.11-3.14-4.12-6.27-4.98-10.03-.67-2.02-1.6-1.69-3.03-2.23l.86-1.11-2.55-.86c-2.69-1.74-.48-6.2-4.48-8.03l-.41.97c-.6-1.29-3.23-2.97-2.25-3.49-.22 0-1.02.26-1.03-.43l.51-.49-3.18-1.73c-1.39-2.29 2.35-1.56-.16-4.54-1.18-.89-4.21-1.61-4.18-.87.36.44.67 1.4.19 1.92l-1.12-.7c-1.63 1.28-3.75 2.1-2.75 5.36l2.34.7-.28 1.2-1.24-1.28c-.01 1.4 1.02 1.29 1.93 1.44-.29.49-.36.96-.22 1.41l2.87.22c-.44.72-1.83.37-1.24 1.69 1.34.13.74-1.88 2.29-1.08-.03 1.38-.82 1.64.59 2.01-.3.47-.72.5-1.22.3 1.21.37 2.1 1.9 3.23 1.68-.29 1.58 2.36 2.71.74 3.81.57-.02 2.33.57 2.97 1.32-2.94-.05 2.05 3.02-.3 4.07 1.24-.06 2.2.71 2.97 1.77.76 1.07 1.49 2.3 2.58 3-.21-.03-.64-.06-.65-.31.52 1.23.17 1.87.24 2.8 1.59-.74 2.97.81 4.48 1.25-.65 2.21-2.29.16-3.44 1.39 1.2-.76 2.65 1.69 3.41.68-.3 1.56.13 1.13-.9 2.38 2.03-.81.8.86 2.42 1.18-.21 2.1-1.63 1.31-.22 2.78-.22 1.12-1.63-.1-1.63-.1m16.13 43.17h-.02c-.03-.4-.15-.73-.18-.95.03.2.14.48.2.95m.21 3.94c.02-.48 0-1.08-.03-1.71.42-.17.87-.05.87.35-.3-.19-.51.76-.84 1.37m7.81-9.4c.28.64.05.89-.18 1.01-.07-.31-.17-.67-.32-1.12-.04-.02-.12-.04-.16-.06.24.03.48.07.66.18" class="cls-1"/><path d="M349.94 191.53c-.04-.08-.09-.14-.13-.25-.1.15-.17.29-.22.42.14.06.29.13.42.18-.03-.12-.05-.24-.07-.35M96.95 281.79l.02.09c0-.09.01-.17.05-.24-.02.08-.05.11-.07.16m237.01-27.23.29.1-.15-.41-.14.31zm-243.24 5.49c.08-.08.16-.2.19-.38-.07.04-.13.19-.19.38m-3-8.95c-.01-.47.01-.93.02-1.41-.08.64-.07 1.07-.02 1.41M86.26 244c-.23-.03-.4-.01-.55 0v.02l.55-.02Zm72.03 83.73c.08.03.18.05.28.06.69.05.24-.04-.28-.06m-30.28-15.77c.41.07.83.14 1.2.29-.39-.48-.73-.82-1.2-.29m66.45 25.03-.01.02.24.03-.23-.05z" class="cls-1"/><path d="M130.43 313.26c-.35-.55-.78-.81-1.23-1.02.31.41.7.87 1.23 1.02M82.5 213.09l.04-.35a.403.403 0 0 1-.2-.03l.16.38Zm-.16-.38-.16-.38c0 .18.02.33.16.38m-.5-1.19.34.81c0-.28.02-.62-.34-.81m.63 11.12.46.06c-.1-.04-.24-.07-.46-.06m.43 2.87c0-.7.74-1.82.39-2.75l-.36-.05c.69.38-.9 2.23-.03 2.8m-3.56 13.11-.11-2.56c-.39.53-.92 1.23-1.25.12-.83 3.44.94-.86 1.35 2.45m1.19 7.8c-.6-1.26-.68.2-.95.2.67.72.83.89.95-.2m25.88 50.41-.97.61c.82.71.35-.28.97-.61m11.49 4.1-.16-1.2-1.08.37 1.24.83zm-1.2 10.17-.45-.2 1.61.9-1.16-.7zm87.36 37.94-.23-1.41c-.73.21-1 1.78.23 1.41m41.25-4.96c.6.57 1.85.73 2.39-.11-.94.13-1.97-.18-2.39.11m94.94-75.33.06.96.33-1.61-.39.65zM94.87 92.03c.03-.56-.77-1.03-1.41-.04l.5 1.63.91-1.59Zm-7.16 3.87c-.39 1.5-.5 3.48 1.1 3.74-.16-1.94.49-1.78.22-3.99.65-.97 1.69-1.16 1.96-.66 0-.56 1.43-1.09 1.18-2.2-1.82.32-3.15 1.73-3.79 3.83-.53.11-.53-.47-.67-.72M41.46 198.02l.21-.73c-.11.2-.17.44-.21.73m8.84 70.35c-.21-.51-.42-.67-.56-.66.25.45.48.81.56.66m2.99 12.01c-.07-.25-.15-.47-.21-.7-.01.31.04.59.21.7m-11.83-82.36-.55 1.87c.47.16.4-.95.55-1.87m39.05-87.98c.17-.35.25-.7.29-1.04-.14.3-.28.57-.43.85.05.06.1.12.15.19m-35.13 56.73.14-.57c-.13-.2-.27-.41-.47-.61l.33 1.19Zm7.37-23.13c-.29.48.79 1.13 1.21 1.52-.34-.48-.4-.93-.29-1.41-.21-.1-.51-.15-.92-.12m20.53-32.31.26-.65c-.07.17-.18.44-.26.65m-31.66 72.42c-.19.01-.36.07-.48.15.16.03.32-.03.48-.15m304.73-69.23c.08-.03.12-.09.18-.13-.18-.04-.28-.02-.18.13m-12.74-24.8.31.23c.19-.13.39-.26.55-.42l-.86.19ZM62.34 301.23s-.02-.05-.03-.09c-.42-.44-.23-.17.03.09m178.64 81.93c-2.49-.77 3.54-1.96-.15-2.68.41.43-2.87 2.38.15 2.68M80.03 110.43c-.17.26-.36.53-.56.77.3-.32.47-.56.56-.77m160.8 270.05-.38-.07c.16.03.24.05.38.07M96.24 340.89c.06-.23.02-.5-.03-.76-.07.11-.08.31.03.76m-24.49-29.95.43.87c-.14-.37-.29-.65-.43-.87m41.29 41.13c.36.38.4.64 1.08.91a.872.872 0 0 0-.1-.25c-.3-.01-.62-.15-.98-.66m17.64 11.06c-.05-.14-.14-.27-.21-.41-.19-.1-.4-.19-.6-.28l.82.69Zm241.67-194.97c.23-.51.55-.88.87-1.17-.78.52-1.78-2.22-.87 1.17m-292.4-58.53c.18.29.2.52.07.81.12-.2.23-.39.34-.57-.11-.17-.24-.29-.41-.23m39.42 234.85 2.41 2.01c-.64-.62-1.51-1.35-2.41-2.01m229.6-40.75.31-.67c-.19.21-.32.43-.31.67M129.8 351.16c.25.67.64 1.19 1.08 1.64.16-.02.33-.01.48-.09l-1.56-1.55Zm243.43-184.19h-.01.01Z" class="cls-1"/><path d="M363.93 148.33c1.06 2.76 1.99.71 3.09.94 1.62 3.23-.58 2.01-.96 3.45 1.13 1.93 3.12 3.05 3.61 4.65-.21.2-.2.54-.65.29 2.04 1.82 2.45 6.56 4.52 8.86-.1.23-.2.37-.31.46.69-.66 1.47-.94 2.07-1.01.35 1.32 1.61 2.21.69 2.97-.17-.81-.6-.78-1.03-1.08l.79 1.28c-1.19 1.62-.97-1.77-2.09-1.47 1.14 2.55 3.15 5.42 3.24 7.6-1.37.74-1.67-4.72-2.32-1.68l-.21-3.31c-1.73 3-.31-1.96-2.24.87.54 4.23 1.98 4.45 2.37 8.71.96.79 1.18-.55 2.14.25 2.37 5.84-3.07 5.34-.44 9.45 1.16 1.01 3.13 1.25 2.59 4.54l-1.86-.91c.28 4.12 2.63 2.15 1.75 6.61-.71-.74-.72-3.23-.9-2.59-1.21 2.91 1.07 1.93 1.16 4.11l-1.48.53c.22 2.19.67 4.5 1.12 6.88.51 2.38.52 4.84.6 7.32-.43-.3-.87-1.14-1.39-.02.23 3.1.03 6.4-.37 9.64-.65 3.22-1.62 6.35-2.47 9.21l.96 2.45c-.08.53-.72.88-.89.26-.82 2.21.8.26 1.14 1.45-.1 1.33-.98 1.6-1.25.7.38 2.15.08 5.07-.3 8.01-.42 2.94-1.16 5.85-2.35 7.76l-.17-.92c-1.24 3.12 1.54 4.42-.64 7.05l-.02-.65c-1.48 3.38-2.61 7.07-3.83 10.51-1.29 3.4-3.11 6.37-5.11 8.5 1.25 1.78-3.78 6.16-1.65 7.79-3.27 3.01-3.08 1.75-6.81 6.34-.89 1.27.22 2.85-.54 4.67l-1.19-.69-.13 3.05c-.68.12-1.41.19-2.15.25l-.78 1.65c.5-.53 1.42-.89 1.68-.58-1.19 2.66-4.9 5.05-5.49 4.67l-3.04 6.11c-.35-.47.17-1.49.41-2.41-1.02 3.74-1.5-.38-2.45 3.05.52-.14.49.7.64.92-1.74.69-4.22 3.42-5.81 5.7l-.35-1.02c-1.75 1.75-3.4 3.76-5.09 5.84-1.74 2.06-3.79 3.92-5.82 5.81 1.78-1.02 2.57.48 1.45 1.7l-1.47-.62c-.18 1.38 1.65-.75.76 1.52-1.67 1.29-2.14-.29-1.58-1.44l-1.53 2.07c-.4-.22-.11-.79-.36-1.3-.19 1.38-4.16 1.8-4.26 4l-.38-.24c-4.41 3.32-6.17 5.16-9.76 7.92.65 1.08-.94 1.9-1.48 3.55-3 1.57-6.8 2.48-10.16 4.65-2.13 1.98-.19 1.34-.93 2.65-.74-.89-4.15 1.26-2.74-.53-1.99 1.39-3.43 1.95-4.89 2.83-1.48.86-3.06 1.85-5.65 3.57.79.15 1.56.01 1.37.53-.94.65-2.51.64-2.58.06l.22-.22c-1.4 1.09-3.06 1.96-4.9 2.48-1.86.44-3.84.72-5.75 1-3.84.53-7.38 1.12-9.63 3.09l.26-.18-5.19 2.53c-2.58.43 1.31-1.2-.74-1.42-5.51 3.25-9.37 2.21-14.14 3.99-2.2-1.39-5.56-.84-9.1-.11-1.77.43-3.6.6-5.32.67-1.73.06-3.33-.03-4.66-.51l.34.77c-1.32.85-1.66-.37-2.66-.51.16.61 1.49.65.67 1.11-11.52 1.6-23.72-1.68-35.01-4.25-2.1-.37-2.88.48-3.77 1.08-.88.61-1.9 1-4.34-.57l1.82-1.07c-4.37-.23-8.77-1.1-12.95-2.47-4.16-1.51-8.26-3.03-12.56-3.74.6-.15.78-.55 1.57-.28-1.37-1.44-6.09-2.56-6.48-1.8-1.16-.65.04-.85-.52-1.6-1.35-1.32-4.67-.66-5.08-2.02-.07-.22.61-.11.94-.04-1.28-.02-4.88-2.4-4.43-.84-1.34-.88-2.73-1.5-4.01-2.17-1.3-.64-2.54-1.24-3.45-2.2-2.13.33-4.36-3.35-5.84-1.96.64-.81-.36-1.85-1.78-2.73-1.43-.89-3.12-1.87-4.23-2.05.9-.11-1.05-1.57.07-1.78-1.86-1.33-3.78-2.29-4.08-1.22-1.94-4.41-8.17-3.49-7.89-7.61-5.67-3.85-11.26-7.26-15.56-11.77 1.64-1.24 4.68 5.02 6.12 3.2-4.61-3.6-8.08-5.07-11.68-9.7-.8-1.3 1.25.07 1.84.22-1.12-.95-2.19-1.95-3.14-3-.84-1.14-1.67-2.27-2.49-3.37-1.62-2.22-3.21-4.36-5.21-6.15.16-.1.67.24 1.1.58-.66-.79-1.18-2.1-1.85-1.48l.79.67c-.08 2.1-4.74-1.74-5.4-1.55 3.08.08-2.11-4.86 2.1-4.22-.49-.49-1.28-1-1.73-.54-.36-.96-.22-1.42.89-.91-2.3-2.9-2.47-1.28-4.15-4.18.39-.21.88.29 1.5.32-1.6-1.02-3.23-2.07-4.35-4.7.32.02.46-.43.89.3-1.4-2-2.57-3.74-3.94-5.45-1.31-1.75-2.55-3.62-3.3-6.24 2.42.67-.19-1.91 1.22-2.8-.54-.82-1.15-1.59-1.62-2.42-.14.47-.22.91-.31 1.37-.93-2.33-2.7-4.05-2.94-6.29l1.26 1.54-1.85-4.35.29 2.74c-1.65-2.14-1.88.96-2.57-2.4.39.6-.83-2.42-.33-3.97-.88-1.04-1.98-2.07-1.97-4.04.4-.61 1.86-.12 2.13-.53-1.63-.83-1.77-5.64-3.58-6.82.46.43 1.31.25 1.44.04l-1.33-.75c.06-1.23.2-1.43.92-1.4-.64-3.47-1.79 1.55-1.91-2.73.17.31.3.12.62.75-.13-1.05-.36-2.05-.65-3.04-.21-1.01-.42-1.99-.64-2.96-.46-1.94-.89-3.85-.89-5.81 1.49-1.37.89 3.28 2.1 1.78-.55-2.71-1.45-5.48-2.28-8.28-.71-2.8-1.05-5.63-1.02-8.34l-.14 1.02c-2.39-.64.97-4.09-.27-6.77.21.67 1.35.86 1.08.68.03-3.67-.48-7.5-1.02-13.17l.57.73c.69-2.14.49-5.71 1.06-8.01-.5-.75-.2-2.07-1.2-1.35 2.23-3.41 2.27-6.84 2.21-10.27-.19-3.43.16-6.74 2.3-9.55-.17.75.08 1.9.23 1.3l.75-5.44c-1.09.16-.77.54-1.82 1.47-.42-.83-.51-2.47-.18-3.81.06 2.6 1.6.4 2.4-.47-.35.08-.59-.36-.92-.36 2.51-2.28-2.04-1.09.41-4.49l.44.35c.22-1.47 0-2.97.67-4.44 1.35-.25.01 1.66.91 2.05.67-2.11-.68-4.89 1.11-6.42 0 1.02-.44 2.31-.46 3.3 2.04-1.61 1.79-1.96 2.54-3.42l-.08.15 1.82-3.31-.67.76c-.49-.93-.66-1.76-.62-2.52.1-.74.37-1.43.69-2.14.65-1.41 1.46-2.85 1.33-4.99.2 4.12.76 1.01 1.86 1.81.74-.71 1.73-1.83 1.91-1.3-.24-2.06 1.99-2.28 1.61-5.23.43.1.83-1.68 1.63-.83.66-2.22-.9.14-1.3-.27.25-3.9 5.72-6.28 6.48-11.7.76-2.11.92-3.56 1.13-4.93.29-1.33.56-2.65 1.49-4.52 1.39-.72.62 1.82.62 1.82 1.84-1.43 2.73-2.84 3.58-4.84.05.57.57.41 1.33.19.9-1.42-.58-1.86 1.24-3.27.16.61.48 1.48.38 2.42.88-1.8 1.29-3.97 2.36-5.75.95.08.03 1.62.04 2.55 1.11-2.03 3.41-4.87 2.95-6.22l-1.31.83c.52-.67 1.07.35.82.95-.6 2.06-2.22 1.84-2.64 1.65l.76-1.27c-3.09-.59-3.4 4.86-5.23 7.13l-.74-2.12-.58 3.38c-.76.23-1.86-.02-1.22-1.38-2 1.2-.58 1.92-2.51 2.81-.24.07-.26-.05-.21-.24l-.79 2c-.07-.55-1.28-.46-.3-1.34-1.56 1.22-2.18 2.65-2.65 3.81-.37 1.23-.62 2.17-1.58 2.4l.06-.33c-2.13 4.84.89 1.16.28 5.35l-4.22.56.91 1.12c-.32.45-.95 1.31-1.32.88-.21 2.18.69-.01.87 1.42-1.2.81-2 2.42-2.73 3.77-.61 1.4-1.24 2.52-2.33 2.31.53 1.3 1.76-1.9 1.24.94-2.42-.32-.98 3.07-2.94 4.75-.79-1.16.74-2.95-1.24-1.24 1.25 2.15-2.36 4.03-2.86 6.03 1.33.66-1.01 4.31-1.58 7.7-.43-.39-2.93 5.68-4.53 8.5l-.23-.17c1.26 1.03.26 4.09.02 6.46-.93-.34-1.2-.85-1.31-2.21l-.53 2.17c.38.65.49 1.39.33 2.83l-1.05-.84c-.62 2.93-.08 6.11-1.65 9.68 1.08.4 3.59-2.34 3.72 1.7-.62.03-1.68-.01-1.78-1.09.03.35.33 1.29-.03 1.93l-.79-1.76c-.69 1.62.73 1.05.43 2.38-.86-.17-.76.91-1.42.59-.03-.36.53-1.13.26-1.71-.38 1.51-1.16 3.3-1.91 3.82.51-.05 1.16.18 1.11 1.33-.36 2.93-1.19.85-1.88 2.51.51.79-.39 2.59.9 2.79-.13.86-.76.94-1.15 1.24.18 1.57-.33 7.18 1.1 5.55l.11-.38c.02.07.03.16.05.25.53 2.54.22 5.1-.18 7.69-.35 2.57-1.05 5.16-.54 7.63h-.43c.64 2.95.6 6.6 1.65 8.65.04.87-.7 2.11-1.24 1.78.51 2.23.77 2.46.54 5.77-1.06-2.18-.61.86-.84-2.27-.06 2.96-.58 3.73 1.04 6.72-1.27-.93-1.09 2.41-.55 3.76l.5-2.17c.39 1.55.49 2.92.59 4.33l-1.57-.51c-.47 3.18.66 5.8 1.96 8.14 1.22 2.37 2.22 4.54 1.31 7.18 1.39 1.3-.08-3.4 1.44-2.29.46 2.73-.89 6.13-.69 7 .19 3.98 3.18 2.79 3.89 6.75.33-.65 1.51-1.54 2.96 1.09.72 2.66-.96 3.97-1.95 2.45-.26-.62-.21-.98-.03-1.02-.48-.78-1.08-1.83-1.26-.6l.62.17c-.05 1.49 1.28 5.12.17 4.57 1.18 1.83 1.1.55.85-1.03.23 1.83.7 3.17 1.19 4.5.52 1.31 1.25 2.56 1.77 4.36.02-.66.37-1.39.6-.86 1.68 5.19 1.93 1.76 3.66 4.96.15 2.23-2.04.15.12 3.21.47 2.3-1.05 1.07-1.82.43 1.18 1.31 1.69 2.82 2.01 4.25.39 1.38.64 2.65 1.04 3.54l-1.29-1.36c.77.82 1.22 1.58 1.67 2.35l.4-1.4c.37 1 .83 1.77.42 1.97 1.15.59 1.11-1.57 3.02-.2.24 1.46 2.65 3.33 1.69 4.48-1.83-4.02-.95 1.14-3.05-1.95.51.53.95 1.29 1.33 2.3-.05.22-.33.02-.54-.18 1.09 4.31 2.34.85 4.53 4.61-.96-.04-.74 1.7-.14 2.16-1.04-1.44.6-1.4 2.04-.44 1.14 2.59 2.17 2.17 2.97 3.39l-.75-1.5c.98 0 1.72 1.16 3.06 2.57-.4.5-1.39-1.16-1.2-.45 2.38.89 1.73 4.76 4.25 6.62.41 1.45-1.08 1.04-.62 2.26 2.94 1.95 1.6 3.45 4.62 5.58.11-1.47-.2-1.42 2.24-.25l-4.47-3.83 3.67 1.77c-1.15-1.31-2.99-2.31-3.55-3.21 1.85.76 1.52.79 1.64-.39.38 2.81 3.86 2.89 4.89 5.63l-2 1.7c.97 1.95 2.48 3.11 4.12 4.33.84.59 1.65 1.26 2.55 1.95.93.68 1.85 1.47 2.74 2.5l-.97-1.5c1.27-.26 2.57 2.14 4.16 3-.71.54-.12 1.51.07 2.42.37-.55 2.92 2.72 4.44 1.71l1.05 2.5c3.02 3.25 5.52 1.09 8.63 3.84-1.59.02-.42 1.65-3.11.52 1.13.84 2.05 1.73 2.43 1.25.35.93 3.83 1.34 4.38 2.78.7.03 1.38-.61 2.59.37.03.24-.25.36-.25.36.25-.36 2.3.95 1.75-.67 2.1 4.64 10.32 5.94 12.36 9.92.69.32 1.42.66 2.16 1.01.76.29 1.55.58 2.33.87 1.53.59 3.04 1.2 4.3 1.75-.26.16-.19.39-.62.08 3.12 2.36 3.18-1.3 6.7 1.34 1.45 2.23-2.38-.26-1.34.8-.59 2.92 4.87 1.93 7.07 4.31l-.73-.07c1.79 1.66 5.56.78 8.92 2.18 0 0-.24.19-.15.41 1.41-.3 3.25-.14 5.18.11 1.97.12 4.02.38 5.76.59-1.33.84-1.69.2-1.34 1.47 1.57.22.03-1.88 3.13-1.46.83.84 2.89 1.89 2.92 3.17l-2.9-.64c1.11 1.91 3.76.86 5.21 1.49l-.34.64c4.49.93 4.92-1.06 9.7-.17l-.42-.58c2.88-1.33 2.06 1.28 4.87.38l.57 1.85c.89-.09 2.47-.26 4.21-.44 1.73-.16 3.64-.59 5.22-.65-.93.6-2.34 1.03-3.81 1.39-1.46.33-2.97.39-4.16.64.87.13 2.34.34 3.74.35 1.4-.07 2.69-.26 3.18-.68-.71.14-1.64.52-2.31.22 2.27-1.27 5.09-1.82 8.53-1.62-.74 3.37 8.98 1.39 11.56 3.62 6.14-1.6 12.36.2 19.54-1.29-2.9-2.27 2.09-.38 1.25-3.01 1.62-.41 2.26-.45 2.43-.31l5.29.88c1.34.59-1.47.81-1.21 1.4 3.71-.36 1.75.85 4.3 1.04-.68-.83.97-1.66 3.11-1.8l-3.15-.53c4.68-2.63 4.87 1.16 9.61-1.47l-1.39 1.23c1.24-.57 3.66-1.14 6-1.96 2.28-1.01 4.49-2.21 5.37-3.68.55.15 1.38.64.33 1.22 3.08-.9 6.26-2.64 9.27-4.17 2.93-1.74 5.65-3.44 8.19-3.85l-.17.8c1.01-.68 1.35-2 3-2.02.05.28-.15.79.37.6.48-.48 2.35-2.38 3.96-2.7l-.89 1.23c1.55-.42 2.75-1.09 3.77-1.88 1.04-.77 1.91-1.6 2.73-2.45 1.64-1.69 3.07-3.45 5.18-4.95.98 1.63 5.67-.17 7.74-1.51l.09.28c3.02-2.06 5.29-4.23 7.4-6.45 1.04-1.12 2.08-2.22 3.13-3.36 1.05-1.13 1.98-2.47 3.12-3.7 4.4-1.26 11.31-8.53 16.4-12.97-.95.52-1.01-1.16-.36-2.17 1.35-.9 1.88-4.11 3.07-2.74l-.4.39c2.1.25 4.02-2.4 5.62-4.36l-1.58-1.81c3.28-1.57 5.62-5.28 7.65-8.66 1-1.72 2.03-3.27 2.9-4.63s1.78-2.36 2.89-2.73c.32-1.68 1.33-3.39 1.62-5.04l1.05.71c2.46-3.69 4.02-5.39 5.94-10.57l.34 1.42c1.39-2.8-1.62-5.12-.52-7.7h2.08c1.05-2.47 2.78-4.67 3.78-7.18 1.08-2.48 1.96-5.04 2.03-7.82.22.18.69.5.48 1.35.86-2.38 4.51-8.91 1.62-8.79 1.63.4 1.48-5.36 1.44-8.31l1.1.73c-.96-2.75-1.38-2.91-1.01-6.28.35-.75 1.14-.49.58.49 1.26-2.48-.58-2.23.51-5.31l.6 1.34c.49-2.71.04-2.57-.66-4.21-.24-1.78 1.05-5.08 2.22-5.36-.62-.46-1.32-2.04-.76-3.61.44-.17.62.44.71.75.82-2.22.54-3.98.28-5.53-.24-1.56-.44-2.91.24-4.45.41-.04.62-.24.76-.5-.2 3.66-.41 6.6-.49 6.31 1.13.12 1.48-2.86 2.93-.36-.74-2.5-2.41-6.66-1.74-9.52.12-.14.23-.28.41-.37l.12.3c.14-.67.06-1.27-.11-1.83.23-.92.4-1.51.47-2.4 1.05-.34.43-3.42.41-4.9-1.24.14-1.13-1.79-2.07.04.07-.23.16.28.25 1.25.05.22.08.49.16.64l-.12-.11c.08.96.21 2.23.12 3.66-.54-1.18-1.11-2.37-.52-4-.84-.74-1.7-1.55-2.12-2 1.65-2.03 2.4-5.97 3.45-6.6-.52-2.23-.55-4.91-1.29-7.29-.67-2.39-1.51-4.55-2.88-5.77-.48-1.22.47-1.55.76-2.07.34.7.42 1.57.82 1.92-.96-2.45-1.31-7.47-3.02-7.77.14-3.28 1.94 1.47.69-2.78l.64.48c.24-4.51-1.63-7.77-3.41-11.06-1.65-3.35-3.81-6.53-3.79-11.61.02.7.04 1.04-.17 1.26-.55-2.7-1.39-5.37-2.33-8-.95-2.64-2.46-5.07-3.69-7.59-1.29-2.5-2.55-5-3.65-7.56-1.08-2.56-2.42-4.95-3.24-7.62-1.16-2.89-2.23-2.66-3.86-3.84l.8-1.28-2.94-1.93c-3.4-3.1-1.91-8.27-7.03-11.69l-.28 1.14c-1.1-1.76-4.25-4.94-3.31-5.26-.26-.05-1.18.1-1.36-.8l.5-.5-4.31-2.97c-2.26-3.25 2.5-1.39-1.28-5.78-1.66-1.43-5.58-3.11-5.37-2.18.56.67 1.16 1.94.7 2.48l-1.56-1.17c-1.71 1.19-4.15 1.65-2.12 6.06l3.07 1.51-.04 1.45-1.85-1.96c.33 1.78 1.59 1.92 2.74 2.34-.22.55-.2 1.13.07 1.74l3.6 1.03c-.36.8-2.17.01-1.1 1.85 1.69.5.43-2.22 2.54-.8.3 1.77-.55 1.87 1.21 2.75-.28.55-.72.42-1.38.05 1.49.84 2.72 3.22 4.1 3.2.01 1.99 3.45 4.19 1.77 5.22.68.12 2.92 1.37 3.86 2.52-1.77-.42-.97.71-.06 2.03.9 1.34 1.69 3.05.48 3.4 2.78.57 4.41 5.63 7.22 8.08-.24-.08-.74-.25-.8-.57.86 1.79.59 2.58.88 3.85 1.72-.62 3.31 2.02 5 3.06-.49 2.95-2.46-.44-3.58.97 1.21-.74 3.03 3.19 3.75 1.94-.16 2.13.22 1.67-.7 3.13 2.13-.6 1.07 1.41 2.94 2.27.12 2.87-1.53 1.4.2 3.85-.16 1.56-1.73-.61-1.79-.58m15.8 67.7h-.03v-1.46c.01.31.02.72.03 1.46m-.27 5.94c.08-.72.14-1.62.17-2.57.44-.19.88.06.83.67-.28-.35-.59 1.05-1 1.91m9.19-12.62c.24.98-.05 1.32-.32 1.45.02-.47-.04-1.01-.17-1.73-.04-.03-.12-.07-.16-.11.24.08.48.19.65.38" class="cls-1"/><path d="M386.82 207.64c-.03-.14-.09-.22-.11-.4-.11.2-.19.39-.25.59.14.12.28.23.4.34-.01-.18-.03-.36-.04-.53M41.71 197.16l-.03.13c.05-.11.11-.2.19-.25-.06.07-.11.07-.16.13m310.35 100.79.28.15.02-.58-.3.43zM51.65 165.11c.12-.03.25-.12.41-.33-.08-.01-.24.14-.41.33m4.71-13.41 1.08-1.74c-.53.73-.85 1.28-1.08 1.74m4.73-9.82a1.42 1.42 0 0 0-.4-.41h-.01l.41.41Zm17.03 163.6c.1.12.19.22.3.31.77.64.3.16-.3-.31m-25.41-44.59c.4.46.79.9 1.11 1.4-.21-.9-.42-1.59-1.11-1.4m66.4 83.38-.02.01.29.21-.27-.22zM54.6 264.56c-.06-.95-.37-1.65-.77-2.28.17.74.34 1.62.77 2.28m32.02-162 .39-.35a.29.29 0 0 1-.12-.18l-.28.53Zm.28-.53.28-.53c-.18.2-.33.38-.28.53m.86-1.64-.58 1.11c.29-.31.67-.67.58-1.11m-10.4 13.16.28.39c-.03-.12-.12-.25-.28-.39m-2.48 3.6c.71-.78 2.35-1.56 2.97-2.88l-.22-.32c.16.93-2.79 1.96-2.75 3.2m-14.39 13.01 2.24-3.09c-.76.34-1.78.78-1.01-.76-3.69 3.44 1.45-.34-1.24 3.85m-5.58 10.37c.66-1.95-.65-.26-.86-.47-.15 1.35-.17 1.68.86.47m-14.17 83.13-1.14-.12c.24 1.57.44-.02 1.14.12m7.82 15.15.48-1.58-1.13-.52.65 2.1zm-6.01 10.92-.33-.65 1.03 2.5-.7-1.85zm84.41 112.47.29-1.46c-1.05-.33-2.03.92-.29 1.46m58.8 19.1c.55.78 2.23 1.48 3.39.95-1.37-.3-2.66-1.03-3.39-.95m166.24-63.74-.38 1.31 1.1-2.15-.72.84zM321.43 37.48c.76.03.92-.93-.74-1.66l-1.88.62 2.63 1.04Zm-9.16-8.36c-2.2-.43-4.9-.53-4.34 1.34 2.48-.21 2.63.55 5.41.2 1.66.75 2.51 1.97 1.97 2.29.75-.01 2.27 1.66 3.59 1.35-1.45-2.14-4.05-3.67-7.21-4.39-.43-.61.32-.64.58-.79M139.83 14.57c.37-.11.76-.17 1.14-.23-.33.01-.73.07-1.14.23M50.05 78.34c.49-.7.64-1.04.55-1.16-.46.66-.76 1.24-.55 1.16M37.4 92.78c.26-.32.49-.58.73-.87-.36.28-.67.59-.73.87m102.43-78.21-2.91.72c-.01.53 1.54-.25 2.91-.72m149.05 7.31c.59.14 1.12.18 1.62.18-.49-.13-.95-.24-1.44-.36-.06.06-.11.12-.18.18M187.21 1.85l.9-.14c.24-.2.47-.45.68-.7l-1.58.84ZM224.98.27c-.86-.07-1.22 1.18-1.57 1.72.51-.51 1.14-.74 1.91-.83.02-.23-.07-.52-.34-.89m57.89 14.04 1.05.2c-.28-.05-.73-.14-1.05-.2M160.56 6.64a.906.906 0 0 0-.44-.35c.03.15.2.26.44.35m221.02 94.03c.08-.02.12-.08.18-.13-.21-.11-.32-.12-.18.13m-22.01-36.91.47.38c.21-.12.41-.23.58-.39h-1.05ZM18.91 122.82c.04-.06.05-.08.08-.14.24-.91.05-.41-.08.14m98.72 276.73c-2.76-2.61 5.96 1.34 1.6-2.19.25.67-5.36-.48-1.6 2.19M288.05 21.4c-.47-.17-.94-.33-1.42-.5.64.26 1.07.42 1.42.5M119.23 397.36l-.44-.36c.18.15.29.23.44.36M1.11 201.8c.22-.16.4-.48.57-.8-.14.02-.3.2-.57.8M13.72 143l-.61 1.37c.29-.53.48-.97.61-1.37m-9.78 90.01c0 .82-.14 1.1.16 2.18.05-.11.08-.21.12-.35-.22-.38-.36-.9-.28-1.83m5.98 31.87c.04-.19.05-.42.08-.65-.11-.31-.22-.66-.33-.97l.24 1.62Zm403.53-76.32c.26-.72.6-1.17.94-1.56-.83.57-1.68-3.92-.94 1.56" class="cls-1"/><path d="M289.12 21.22c-.29.23-.6.29-1.08.18.35.11.68.2 1.01.3.16-.14.24-.3.07-.48M13.9 233.19l.4 4.91c-.04-1.39-.19-3.17-.4-4.91m308.36 146.72.88-.73c-.38.21-.71.46-.88.73M17.05 252.43c-.24.95-.3 1.92-.25 2.9.14.18.26.38.43.49l-.18-3.39Zm397.36-65.44h-.01.01Z" class="cls-1"/><path d="M405.24 155.72c1.18 4.52 2.12 1.7 3.29 2.42 1.92 5.32-.48 2.8-.84 4.86 1.16 3.29 3.22 5.61 3.72 8.19-.22.24-.21.75-.67.23 1.92 3.43 1.98 10.82 4 14.95-.11.34-.22.52-.34.61.74-.79 1.56-1.01 2.16-.93.29 2.13 1.52 3.85.53 4.76-.11-1.31-.56-1.38-.96-1.95.23.72.51 1.45.71 2.18-1.34 2.15-.84-3-2.01-2.87 1.05 4.25 2.53 9.26 2.36 12.63-1.43.76-1.06-7.75-2.07-3.24l.21-5.18c-2.1 4.12-.05-3.11-2.34.69.06 6.7 1.35 7.44 1.03 14.15.87 1.5 1.23-.52 2.11.98.83 4.81-.31 6.71-1.19 8.24-.94 1.55-1.7 2.73-1 6.28.87 1.86 2.76 2.74 1.33 7.67-.49-.62-1.02-1.25-1.55-1.86-.85 6.45 2.02 3.97.08 10.65-.52-1.3.05-5.18-.26-4.22-1.88 4.21.66 3.25.07 6.63l-1.62.47c-.46 3.43-.68 7.09-1.22 10.82-.25 1.86-.5 3.76-.75 5.66-.36 1.88-.74 3.78-1.19 5.66-.32-.53-.43-1.93-1.34-.31-1.85 9.56-6.37 19.75-11.08 27.82l-.24 3.8c-.38.74-1.22 1.13-1.05.22-2.06 3.04.67.52.35 2.31-.85 1.92-1.9 2.13-1.66.78-1.59 6.34-6.68 17.33-11.53 22.3l.37-1.33c-3.29 4.12-1.16 6.44-4.95 9.81l.36-.91c-7.14 9.02-14.77 19.37-22.34 24.24.07 2.47-8.73 7.26-7.63 9.58-2.93 1.66-4.1 2.09-5.49 2.77-1.37.71-3 1.62-6.91 4.05-2.03 1.37-1.84 3.62-4.22 5.57l-.86-1.07-2.56 3.54-2.73-.1c-.72.64-1.42 1.29-2.17 1.87 1.02-.51 2.34-.84 2.42-.39-3.4 3-9.74 5-10.15 4.46l-8.63 6.14c-.04-.57 1.4-1.62 2.46-2.6-4.26 3.95-1.54-.72-5.53 2.72.76-.03.03.89.05 1.2-1.33.2-3.31.94-5.42 1.92-2.13.91-4.44 1.97-6.34 3l.38-1.2c-7.18 2.93-15.09 6.41-23.48 8.89 3.13-.43 2.93 1.35.47 2.19l-1.39-1.13c-1.37 1.3 2.75-.17-.26 1.78-3.23.7-2.55-1.02-.87-1.96l-3.72 1.52c-.34-.36.51-.83.6-1.43-1.34 1.39-6.97.2-8.91 2.21l-.31-.37c-8.53 1.73-12.38 2.78-19.44 3.67 0 1.25-2.79 1.35-4.85 2.47-2.65-.03-5.44-.12-8.35-.28-2.92-.22-5.96-.34-9.11-.24-4.46.51-1.31 1.03-3.32 1.73-.32-1.15-6.65-1.2-3.33-1.94-3.8.07-6.21-.22-8.89-.21-2.69.02-5.61-.1-10.46-.22.97.58 2.13.93 1.47 1.24-1.77-.02-3.91-.94-3.58-1.46l.48-.06c-5.48.05-11.56-1.81-17.17-3.91-2.84-.93-5.53-2.11-8.09-2.9-2.57-.77-4.99-1.32-7.2-1.46l.5.03c-2.93-.55-5.94-.95-8.85-1.64-3.78-1.64 2.59.06-.01-1.67-4.82-.77-8.36-2.2-11.56-3.83-1.61-.78-3.18-1.55-4.8-2.28-1.6-.78-3.28-1.5-5.2-2.1-2.04-2.77-6.73-5.38-11.79-7.97-2.46-1.41-5-2.83-7.28-4.28-2.29-1.45-4.19-3.12-5.59-4.7l-.06.92c-2.19-.59-1.85-1.84-3.03-2.88-.18.61 1.48 1.88.15 1.48-7.55-5-14.72-11.08-21.06-18.01-3.3-3.32-6.2-7.05-9.24-10.6-1.47-1.81-2.84-3.7-4.27-5.53-1.43-1.83-2.85-3.65-4.15-5.55-3.86-5.47-5.77-.44-9.11-8.6l2.58 1.13c-9.4-10.11-14.89-23.5-21.58-35.08.62.59 1.04.43 1.56 1.63-.18-3-4.09-9.57-4.82-9.36-.65-1.99.56-.74.52-2.1-.43-2.83-3.77-6.19-3.17-7.99.09-.3.57.65.82 1.11-1.06-1.59-2.51-8.19-3.14-6.16-.47-2.48-1.15-4.77-1.88-6.93s-1.35-4.22-1.4-6.28c-1.93-2.27-1.19-8.52-3.15-9 2.04-.02.08-8.92-1.09-12 .73.98.3-2.82 1.28-1.67-.53-3.57-1.02-6.86-2.03-6.14 1.8-6.77-2.58-13.4.47-17.2-1.06-10.74-.79-20.82.18-30.55 1.77.62-1.19 10.71.94 10.52.15-4.58-.13-8.28.08-11.92.07-1.83.18-3.65.39-5.58.29-1.92.73-3.93 1.33-6.14.77-2.27.56 1.5.72 2.35 1.02-9.22 4.57-17.15 6.13-25.26.16.07.05.97-.04 1.82.39-1.57 1.57-3.42.62-3.57l-.33 1.56c-2.17 2.01-.32-6.99-.86-7.54.73 1.78 1.6-.08 2.5-1.7.96-1.6 1.92-2.95 2.57-.32.26-1.04.4-2.44-.25-2.46.79-1.38 1.31-1.69 1.31.05 1.9-5.48.04-4.08 2.41-8.79.38.21.06 1.24.3 1.95.42-2.73.76-5.58 3.19-9.35.11.36.67.07.01 1.23 1.82-3.36 2.86-6.5 4.17-9.64 1.42-3.06 2.89-6.26 5.61-9.52.17 3.1 2.16-2 3.78-1.41l2.16-3.98-1.68 1.02c2.22-3.26 3.57-6.65 6.03-9.05l-1.26 2.75c1.44-2.01 2.82-4.08 4.39-5.99-1.08.93-2.16 1.85-3.17 2.86 1.83-3.7-1.95-1.03 1.84-4.8-.57.93 2.64-3.04 4.72-3.96h-.01c.87-1.85 1.94-3.65 4.26-5.54.91-.18.91 1.71 1.5 1.6.18-1.16 1.66-2.96 3.3-4.7 1.69-1.69 3.42-3.44 3.82-4.82-.37.81.2 1.47.52 1.43l.43-1.93c1.61-.98 1.92-1.04 2.17-.32 4.21-3.59-2.71-.38 2.75-4.15-.33.41-.03.38-.71 1.23 1.29-1.03 2.5-2.11 3.65-3.22 1.23-1.03 2.43-2.04 3.63-3.05 2.37-2.04 4.71-4.03 7.28-5.66 2.4.26-3.96 3.56-1.49 3.44 1.68-1.39 3.33-2.86 4.99-4.38 1.73-1.42 3.53-2.77 5.29-4.16 3.58-2.7 7.06-5.6 10.89-7.41l-1.48.57c-.12-2.6 6.16-1.91 9.41-4.87-.86.65-.62 1.8-.49 1.44 2.67-1.11 5.11-2.82 8.08-4.34 2.94-1.58 6.24-3.33 10.11-5.42l-.77.98c1.68-.36 3.73-1.3 5.92-1.95 2.18-.66 4.38-1.37 6.18-1.8.85-.91 2.89-1.47 1.4-1.91 2.99-.03 5.67-.69 8.31-1.34 2.66-.59 5.19-1.44 7.69-2.3 2.51-.87 4.98-1.74 7.47-2.36 2.53-.46 5.1-.6 7.7-.26-1.19.18-2.75.94-1.8.8l8.41-1.81c-.8-.92-1.2-.46-3.09-.98 1-.76 3.37-1.59 5.49-1.91-3.78 1.3.21 1.51 1.94 2.09-.31-.3.23-.68.05-.98 4.67 1.52.58-2.12 6.86-1.29l-.3.56c2.29-.42 4.38-1.27 6.89-1.28 1.07 1.12-2.45.71-2.56 1.7 1.75-.13 3.44-.89 5.11-1.28 1.68-.37 3.33-.59 4.92.02-1.49.31-3.63.28-5.1.58 3.46 1.45 3.84 1.1 6.38 1.37l-.25-.03 5.87.73-1.48-.4c2.21-1.47 4.47-1.69 6.87-1.5 2.41.23 4.99.62 8.02-.1-5.89 1.34-1.04 1.01-1.62 2.31 1.46.52 3.66 1.16 2.97 1.47 1.43-.4 2.55-.07 3.82.2 1.27.26 2.67.49 4.69.11.11.46 2.9.57 2.11 1.54 3.57.31-.7-.9-.32-1.39 5.74-.39 12.45 3.85 20.53 4.22 6.85 1.02 8.57-.22 14.86 1.4 1.82 1.4-2.19.89-2.19.89 3.08 1.8 5.57 2.57 8.85 3.24-.76.13-.23.66.53 1.45 2.5.82 2.29-.95 5.2 1.11-.74.2-1.73.58-3.06.52 2.95.9 6.06 1.46 9.15 2.46.44 1.04-2.24.22-3.47.2 3.4 1.2 8.74 3.28 10.31 2.69l-1.93-1.35c1.23.5.16 1.2-.82 1-3.22-.45-3.86-2.24-3.85-2.72l2.21.72c-.52-1.65-2.69-2.53-5.21-3.26-2.55-.68-5.36-1.4-7.54-2.15l2.51-1.06-5.05-.2c-.77-.79-1.07-2 1.2-1.47-2.83-2-3.01-.39-5.37-2.33-.24-.26-.07-.3.22-.26l-3.26-.59c.73-.15-.1-1.43 1.72-.49-5.19-3.18-9.45-1.56-11.19-3.53l.51.02c-8.06-1.54-1.14 1.1-7.41 1.05l-3.19-4.33-1.09 1.13c-.82-.19-2.43-.59-2.01-1.07-3.28.34.4.67-1.57 1.21-3.75-1.95-11.04-1.45-11.61-3.75-1.58.76 3.69 1.48-.66 1.42-.89-2.57-5.02-.14-8.55-1.6 1.25-1.08 4.7-.11 1.11-1.53-2.43 1.8-7.17-1.16-10.35-1.08-.24 1.61-6.86.55-12.12 1 .17-.25-2.31-.55-5.44-.78-3.13-.02-6.92-.01-9.4-.14l.13-.29c-.84 1.76-5.91 1.56-9.51 2.45.04-.96.64-1.55 2.59-2.13-1.16.03-2.3.31-3.45.45-.75.64-1.79 1.07-3.98 1.59l.7-1.33c-2.29.37-4.54 1.07-6.97 1.68-1.22.31-2.47.58-3.8.8-1.32.24-2.69.55-4.18.68-.07 1.19 5.18 2.04-.69 4.19-.35-.55-.8-1.52.73-2.14-.5.2-1.74.93-2.84.92l2.2-1.59c-2.72.17-1.19 1.18-3.29 1.57-.16-.87-1.69-.24-1.56-1 .52-.21 1.92-.07 2.64-.6-2.4.4-5.39.57-6.51.15.33.43.3 1.14-1.41 1.66-4.47 1.13-1.82-.66-4.53-.33-.9.93-3.9 1.24-3.58 2.52-1.29.4-1.72-.1-2.32-.28-2.11 1.29-10.6 3.61-7.55 4.09l.61-.09c-.11.05-.22.11-.35.17h.01-.01c-3.44 1.95-7.17 3.46-11.02 4.73-1.92.66-3.83 1.32-5.73 1.98-1.85.75-3.59 1.72-5.24 2.72l-.19-.4c-3.85 2.64-9.05 4.95-11.38 7.48-1.14.73-3.12 1.04-2.91.28-2.82 2.19-2.87 2.82-7.57 4.96 2.57-2.56-1.42.09 2.77-2.45-4.05 2.22-5.49 2.03-8.78 5.95.69-1.95-3.6.97-5.15 2.59l3.05-1.33c-1.86 1.63-3.63 2.87-5.43 4.13l.04-1.9c-4.35 2.18-7.34 5.37-9.77 8.63-2.54 3.17-4.93 5.98-8.65 7.35-1.12 2.44 4.31-2.95 3.49-.56-1.65 1.41-3.75 2.42-5.43 3.37-1.66.95-3.07 1.66-3.55 2.16-4.75 3.79-2.3 5.48-6.75 9.85.92-.26 2.47.11-.15 3.92-2.92 3.15-5.02 2.78-3.69.32.59-.86 1.08-1.12 1.18-.97.77-1.19 1.8-2.74.24-1.8l.03.77c-1.86 1.26-5.42 6.13-5.26 4.46-1.63 2.93-.18 1.64 1.52-.12-2 1.99-3.39 3.69-4.67 5.49-1.24 1.83-2.47 3.69-4.33 5.92.76-.59 1.76-.93 1.23-.19-5.3 6.62-1.21 3.65-4.1 8.55-2.39 2.33-1.03-1.99-3.48 3.25-2.17 2.8-1.6-.06-1.24-1.49-1.69 5.11-5.48 8.25-6.98 10.91.3-.9.55-1.82.9-2.69-.59 1.58-1.15 2.84-1.79 4.08l1.64-.95c-.89 1.39-1.5 2.63-1.88 2.4-.13 1.81 2.14-.37 1.52 3.03-1.51 1.68-2.27 6.18-3.83 6.31 3.18-6.06-1.63.11.57-5.27a21.27 21.27 0 0 1-1.71 3.76c-.24.16-.17-.33-.06-.77-3.74 5.56.16 3.38-2.4 9.64-.42-1.1-1.95.92-2.18 2.03.98-2.57 1.68-.75 1.37 1.8-2.12 3.84-1.24 4.56-1.98 6.69l1.07-2.36c.47 1.09-.29 3.1-.97 6.03-.66.06.43-2.72-.15-1.79.15 1.81-.77 3.48-1.8 5.31-.96 1.85-1.98 3.89-2.14 6.26-1.08 1.96-1.49-.17-2.34 1.59-.3 5.35-2.32 5.34-2.72 10.94 1.41-1.35 1.12-1.67 1.44 2.33.28-3.01.76-6 1.14-9.02l.26 6c.59-2.65.57-5.76 1.1-7.31.25 2.9.05 2.55 1.2 1.48-2.31 3.3-.78 7.35-2.47 11.37l-2.56-.58c-2.3 6.26-.51 11.63-1.87 19.95l.65-2.67c.96 1.22-.22 5.2 0 7.95-.84-.31-1.34 1.38-1.88 2.52.66-.12-.21 6.21 1.52 7-.41 1.24-.84 2.5-1.18 3.76-.3 6.85 2.59 7.7 2.82 14.16-1.09-1.9-1.5 1.12-2.5-3.22.15 2.19.13 4.17.74 4.16-.23.66.17 2.15.55 3.72.46 1.58.88 3.23.58 4.27.5.88 1.44 1.06 1.66 3.48-.15.29-.43.05-.43.05.41-.04 1.08 3.69 1.75 1.45-.78 3.47-.08 8.13.97 12.57 1.06 4.45 2.15 8.74 1.84 11.85 1.43 4.55 3.47 9.91 4.88 13.97-.34-.17-.42.13-.58-.68 1.12 5.93 3.6 2.59 5.07 9.21-.11 3.75-1.98-3.07-1.71-.87-2.46 1.99 3.42 7.42 3.73 12.27l-.59-.95c.21 1.83 1.43 3.63 2.84 5.63 1.44 1.98 2.92 4.22 4.26 6.74 0 0-.36-.12-.4.18 1.6 1.36 3.4 3.57 5.17 6.01 1.83 2.4 3.77 4.96 5.36 7.17-1.84-.83-1.81-1.78-2.23-.29 1.45 1.98 1.16-1.58 4.04 2.34.38 1.63 1.95 4.82 1.22 5.92l-2.7-3.77c.04 2.85 3.47 4.9 4.64 7.05l-.73.16c2.19 2.81 3.75 3.9 5.22 5.1 1.51 1.17 2.93 2.51 5.39 5.39l-.11-.93c4.01 2.01 1.52 3.27 5.19 5.56l-.47 2.11c2.27 1.67 7.74 5.92 11.59 8.92-2.96-.89-7.42-4.59-10.44-6.68 1.86 2 6.48 6.67 8.18 6.94-.9-.65-2.24-1.26-2.79-2.24 3.39 1.34 6.94 3.91 10.94 7.52-1.49.95 1.04 3.42 4.12 6.22 3.1 2.76 6.92 5.6 7.68 7.91 8.55 4.62 15.38 11.53 25.51 16.66-2.22-4.27 2.91 1.55 3.58-1.21 2.4 1 3.27 1.47 3.4 1.74 2.12 1.62 4.2 3.37 6.4 4.9 1.41 1.47-2.54-.44-2.55.16 5.17 2.56 1.73 2.03 4.95 4.25-.33-1.22 2.38-.47 5.28 1.15l-3.78-2.99c3.95.97 5.36 2.1 6.79 3.23 1.43 1.14 2.89 2.34 6.94 3.05-.91.02-1.8-.05-2.7-.07 4.07 1.04 14.72 4.85 19.23 3.67.64.5 1.39 1.47-.43 1.18 9.64 2.85 22.05 2.49 29.53 4.51l-.83.57c1.87.01 3.32-.83 5.57.04-.14.26-.8.6.05.71 1.01-.16 5.01-.82 7.42-.25l-2.14.6c9.68 1.49 14.95-1.28 22.94-1.97.05 2.07 7.71 2.09 11.57 2.15l-.11.29c11.34-.98 18.9-4.13 28.83-7.22 1.71.2 3.87-.13 6.37-.57 2.5-.46 5.3-1.1 8.16-2.02 5.78-1.63 11.84-3.97 16.94-5.31-1.61.3-.33-1.51 1.28-2.43 2.4-.61 5.63-3.93 6.01-2.14l-.82.32c2.46.95 6.78-1.81 10.33-3.49l-.5-2.37c5.29-.9 11.12-4.41 16.06-8.07 2.5-1.79 4.87-3.49 6.9-4.95 2.09-1.4 3.96-2.35 5.56-2.54 1.63-1.98 4.05-3.86 5.63-5.82l.68 1.07c2.86-1.94 4.83-3.61 6.99-5.38s4.41-3.74 7.36-6.83l-.65 1.85c3.51-3.32 1.98-6.7 4.88-9.95l2.27.35c1.43-1.51 2.94-2.96 4.48-4.4 1.49-1.47 2.95-2.99 4.4-4.51 2.94-3.01 5.49-6.36 7.33-10.14.14.26.42.79-.35 1.92 2.6-2.96 9.95-11.7 7.03-11.93 1.55.92 4.81-7.18 6.47-11.37l.73 1.24c.49-4.12.16-4.43 2.34-9.23.75-1.02 1.41-.5.32.8 2.57-3.36.43-3.42 3.29-7.62l-.13 2.04c1.97-3.82 1.49-3.67 1.62-6.2.62-2.66 3.51-7.29 4.81-7.45-.36-.78-.43-3.32.77-5.56.52-.17.43.78.39 1.27 3.42-6.41 2.18-10.5 4.87-14.8.42.02.72-.22.96-.57-1.78 5.42-3.26 9.77-3.21 9.33 1.07.39 2.7-3.97 3.05.05.34-3.86.57-10.42 2.15-14.64.16-.18.32-.36.54-.47v.48c.38-.97.52-1.91.56-2.8.57-1.34.92-2.2 1.23-3.56 1.03-.31 1.63-5.09 2.17-7.35-1.25-.05-.48-2.96-2.04-.4.17-.34.05.46-.22 1.96-.03.35-.11.75-.08.98-.02-.05-.04-.12-.07-.18-.3 1.48-.69 3.41-1.13 5.6-.23-1.92-.35-3.87.87-6.2-.54-1.31-1.06-2.73-1.31-3.52 2.23-2.72 4.18-8.56 5.38-9.26.04-3.55.52-7.67.51-11.51-.06-3.83-.28-7.35-1.38-9.58-.25-1.99.72-2.26 1.11-2.99.21 1.15.14 2.52.47 3.15-.48-4 .04-11.83-1.74-12.74.62-5.01 1.58 2.78 1.14-4.09l.53.91c.64-3.42.41-6.51-.01-9.44-.38-2.93-1.15-5.67-2.01-8.44-1.57-5.56-3.31-11.12-3.19-18.79.02 1.06.04 1.59-.18 1.85-.57-4.23-1.29-8.53-2.54-12.72-.6-2.1-1.16-4.21-1.86-6.3l-2.19-6.2c-1.41-4.15-3.21-8.15-4.62-12.25-1.7-3.98-3-8.09-4.39-12.11-1.73-4.51-2.85-4.54-4.9-6.74l.68-1.55-3.79-3.61c-2.15-2.84-3.12-5.79-4.28-8.98-1.1-3.21-2.7-6.46-6.16-9.53l-.07 1.47c-1.61-2.81-6.48-7.84-5.32-8.07-.34-.16-1.39-.25-1.79-1.53l.49-.52c-1.88-1.87-3.95-3.58-5.96-5.31-3.64-4.94 2.84-1.16-3.12-7.94-2.53-2.27-8.04-5.48-7.5-4.23.9 1 2.04 2.78 1.6 3.35l-2.34-1.93c-1.86 1.05-4.88.94-.95 7.18l4.39 2.78c.13.6.21 1.26.32 1.88-.9-1.08-1.94-2.04-2.91-3.06.98 2.35 2.59 2.92 4.12 3.85-.14.66.04 1.44.54 2.32l4.73 2.48c-.25.96-2.66-.67-.9 2.15 2.13 1.25.05-2.91 2.87-.24.75 2.5-.3 2.4 2.08 4.15-.18.64-.82.37-1.68-.37 2.07 1.57 4.26 5.09 5.84 5.56.48 2.73 5.13 6.81 3.28 7.72.82.4 3.64 2.92 4.94 4.85-2.13-1.18-.98.66.28 2.86 1.19 2.24 2.54 4.84 1.18 4.96 3.44 1.65 6.08 9.44 9.38 13.98-.28-.21-.83-.62-.92-1.12 1.08 2.92.86 4.01 1.28 5.98.88-.16 1.91.84 2.94 2.13.98 1.32 1.98 2.94 2.95 3.98-.22 4.17-2.74-1.45-3.82.25 1.25-.69 3.65 5.67 4.31 4.08-.02 3.1.31 2.56-.58 4.44 2.22-.19 1.18 2.46 3.2 4.36.2 4.35-1.64 1.61.22 5.89-.07 2.28-1.87-1.46-1.87-1.46m3.98 108.62h-.02c.22-.93.4-1.73.53-2.23-.11.47-.25 1.11-.51 2.23m-2.66 8.94c.39-1.07.84-2.41 1.28-3.84.52-.19.84.29.52 1.18-.12-.57-1.03 1.45-1.8 2.67m13.64-17.18c-.16 1.55-.51 1.99-.8 2.14.14-.71.28-1.55.43-2.66-.04-.05-.07-.16-.12-.21.2.2.39.41.49.73" class="cls-1"/><path d="M419.21 253.08c.02-.22 0-.35.04-.64-.17.29-.33.55-.47.84.1.21.18.42.26.6.05-.26.11-.55.16-.81M141.18 14.31l-.2.03c.18 0 .34 0 .47.04-.15-.02-.17-.05-.26-.07m189.22 359.3.19.25.51-.69-.7.44zM192.85 6.89c.11.11.32.2.71.28-.04-.08-.34-.17-.71-.28m22.26-.59 3.13.5c-1.34-.28-2.34-.41-3.13-.5m17.02 1.5c.23-.2.32-.36.38-.5h-.03l-.35.5ZM22.01 144.56c-.06.22-.12.43-.15.64-.24 1.55-.01.52.15-.64m38.07-70.65c-.39.81-.78 1.6-1.26 2.37 1.02-1.04 1.76-1.86 1.26-2.37M13.86 232.65h-.02c.02.18.04.35.06.54l-.04-.54ZM56.35 79.13c1.13-.93 1.87-1.88 2.48-2.85-.84.85-1.84 1.82-2.48 2.85m246.31-50.91.72.39c.02-.08.1-.13.18-.14l-.9-.25Z" class="cls-1"/><path d="m303.56 28.47.89.25c-.38-.18-.71-.33-.89-.25m2.77.78-1.88-.53c.6.29 1.33.65 1.88.53m-24.21-10.32-.39.34c.16-.04.3-.15.39-.34m-6.5-2.22c1.51.66 3.55 2.32 5.78 2.83l.32-.26c-1.23.28-4.39-2.75-6.1-2.56M248.77 4.47l5.74 1.42c-.92-.66-2.14-1.54.54-1.16-7.08-2.77 1.3 1.33-6.28-.25m-18.1-3.04c3.19.1.02-.7.21-.95-2.05.23-2.54.3-.21.95M103.62 31.52l-.33-1.14c-1.99 1.47.22.39.33 1.14M86.51 50.68l2.28-.85.23-1.5-2.51 2.35zm-16.53 3.53.69-.86-2.76 3.1 2.07-2.24zM7.39 259.55l1.21-1.05c-.6-1.57-2.21-1.57-1.21 1.05m44.3 85.13c.15 1.24 1.59 3.61 3.2 4.44-1.34-1.71-2.34-3.72-3.2-4.44m263.41 51.83-1.5 1.36 3.05-2.13-1.55.77zm-172.58-115.7c-.39.15-.94.84-.48 1.03l1.28-.84-.8-.19Zm.41 4.04c.9-.15 2.21-.66 2.87-1.88-1.36.69-1.05.17-2.64 1.01-.46-.19-.28-.89.17-1.22-.39.16-.31-.71-1.14-.22-.35 1.22.2 1.78 1.44 1.63-.1.35-.49.52-.7.69m38.28 25.17-.23-.26c.05.12.13.2.23.26m28.38 5.67c-.22.02-.32.17-.34.3.21-.08.38-.17.34-.3m4.99 1.72c-.11-.03-.2-.05-.3-.08.12.13.23.2.3.08m-33.37-7.39.59.7c.19-.44-.26-.48-.59-.7m-31.34-23.69c-.16-.05-.34-.03-.54.03.13.03.25.07.37.13l.17-.16Zm18.98 20.14-.21-.09c-.14.12-.29.28-.43.46l.65-.36Zm-8.9-4.35c.17.16.86-.88 1.21-1.31-.37.38-.64.51-.85.5-.13.2-.24.47-.36.81m-11.64-10.52-.33-.03c.1 0 .22.03.33.03m26.95 17.89c-.05.18-.07.35-.07.45.05-.15.07-.3.07-.45m113.32-159.94c.07-.05.12-.09.17-.14-.13.03-.2.07-.17.14m-2.61-12.2.15.06.52-.46-.67.4zm-62 181.17-.04-.02c-.23.18-.09.14.04.02M297.08 278c-1.44.06-.19-2.15-2.01-1.78.47.2.73 2.29 2.01 1.78m-147.14 8.63c.11.07.2.15.29.24-.1-.15-.19-.22-.29-.24m145.12-10.4h-.01l-.18.04c.08-.02.13-.03.19-.04m-50.15 37.3c-.11-.2-.23-.33-.37-.45.05.13.14.25.37.45m-15.86 1.72.41.11c-.17-.08-.31-.11-.41-.11m23.06-6.11c.23.02.37.16.58-.09-.05-.05-.1-.08-.15-.12-.03.19-.14.32-.43.21m7.75-3.49c-.08-.06-.17-.11-.25-.16l-.21.17h.47Zm41.59-136.36c.24-.31.55-.56.87-.8-.75.49-1.52-.41-.87.8M149.42 286.88c.23-.21.38-.29.52-.25-.07-.05-.16-.09-.23-.13-.14.13-.25.25-.29.38m99.37 12.98c.41-.06.82-.16 1.21-.29-.35.04-.78.16-1.21.29m60.89-75.99-.11-.31c-.04.11-.02.21.11.31m-56.46 74c.38.31.7.45 1 .5 0-.12.02-.21-.01-.36l-.98-.14Zm49.1-129.39h-.01.01Z" class="cls-1"/><path d="M295.94 162.65c.56 1.02 1.68-.32 2.63-.57 1.13 1-.72 1.15-1.22 1.97.8.54 2.55.38 2.74 1.03-.21.17-.25.33-.61.35 1.56.25 1.21 2.47 3.15 2.76-.1.13-.2.22-.31.3.67-.51 1.41-.89 1.97-1.11.25.49 1.38.49.48 1.12-.11-.32-.52-.16-.89-.16l.67.32c-1.19 1.11-.82-.48-1.84 0 .91.78 2.63 1.44 2.58 2.39-1.31.75-1.29-1.59-2.05-.04l-.02-1.41c-1.76 1.87-.18-.77-2.12 1.09.3 1.68 1.49 1.4 1.8 3.08.9.04 1.1-.58 2.01-.54 2.21 1.77-2.92 3.16-.47 4.1 1.1.08 2.96-.37 2.42 1.16l-1.76.14c.38 1.59 2.65.12 2.13 2.11-.75-.09-.97-1.05-1.08-.75-.92 1.45 1.18.44 1.47 1.26l-1.39.61c.76 1.57 2.17 3.19 2.94 5.02-.47 0-1.01-.21-1.34.34 1.33 2.19 1.09 5.1.43 7.56l1.42.68c.01.21-.53.47-.82.29-.36.97.83-.07 1.4.29.17.51-.65.78-1.08.52 1.29 1.42 3.13 4.31 1.7 6.14l-.4-.3c-.47 1.35 2.74 1.32 1.59 2.65l-.24-.22c-.41 2.91.97 6.15-1.22 8.31 1.85.49-.97 2.79 1.64 3.13-1.38 1.58-1.83 1.07-2.81 3.29-.2.59 1.5 1.07 1.66 1.86l-1.37-.14 1.28 1.21-1.72.34.25.75c.12-.26.7-.52 1.08-.42.46 1.21-1.33 2.58-2.03 2.49l.77 2.82c-.54-.17-.67-.64-.96-1.05 1.18 1.65-1.44-.01-.39 1.49.35-.11.78.25 1.05.33-.96.48-1.32 1.87-1.24 3.01l-.87-.41c-.71 1.82-.52 4.09-1.08 6.2.64-.62 2.17 0 2.13.68l-1.47-.17c.72.66.74-.49 1.51.65-.44.74-1.77.04-2.06-.54l.15 1.09c-.42-.07-.57-.37-1.07-.59.72.67-1.95 1.15-.66 2.2l-.43-.08c-.72 2.03-.58 3.13-1.09 4.85 1.15.5.67 1.05 1.35 1.92-.93 1.06-2.46 1.99-3.02 3.46.1 1.28.82.75 1.28 1.52-1.07-.41-1.64 1.08-2.03-.03-.65 1.8-.72 2.34-1.2 4.85.54 0 .88-.17 1.13.16-.06.47-.93.64-1.38.32l-.04-.16c.01 3.23-5.91 3.7-5.19 6.69l-.02-.17-.32 2.51c-.77.72-.33-.98-1.35-.78.11 3.06-2.47 2.88-2.64 5.26-3.51-.93-3.46 4.21-6.42 4.34l.66.44c.21.93-.76.17-1.15.34.49.38.9.06 1 .6-1.1 2.09-3.14 3.39-5.2 4.61-2.13 1.14-4.16 2.37-6.28 3.36-1.47.8 1.73 3.81-1.15 3.58l-.38-1.55c-.85 1.71-2.27 2.74-3.69 3.74-1.47.92-3.03 1.66-4.09 3.18 0-.39-.21-.77.06-.93-1.14-.56-2.26 1.27-1.85 2.04-.5.18-.49-.62-.97-.85-.91-.2-.88 2.11-1.7 1.35-.14-.12.01-.4.08-.54-.13.74-1.99.8-1.02 1.74-1.41 0-1.95 1.5-3.18 1.27-.02 1.54-2.22.31-1.63 2.17-.74-1.9-2.61-.52-3.02.62.02-.66-.89-.36-.91-1.25-.84.32-1.48.94-.97 1.86-2.38-1.72-2.56 2.94-4.44.34-2.16 2.02-4.47 3.21-6.74 4.27-.39-1.97 2.59-.84 1.95-2.85-2 1.33-2.93 3.33-5.29 3.42-.64-.13.16-.93.28-1.31-2.06 1.46-4.41.54-6.28 1.99-.02-.19.17-.42.36-.6-.39.13-.97-.16-.8.74l.36-.3c.85 1.21-1.25 2.96-1.25 3.67.37-2.69-2.14-.35-1.42-3.79-.24.21-.53.69-.4 1.28-.41-.12-.57-.45-.25-1.21-1.39.7-.77 1.64-2.11 1.67-.04-.43.21-.62.31-1.14-.59.89-1.21 1.78-2.36 1.46.04-.26-.11-.61.23-.61-1.91.22-3.21 2.45-5.39 1.71.6-1.95-.73-.59-.85-2.26-.38.2-.75.35-1.13.5l.46.83c-1-.08-1.92 1.09-2.76.5l.76-.65-1.88.22 1.04.69c-1.05.8.04 2.11-1.3 1.58.29-.16-1.03-.07-1.5-1.08-.53.51-1.09 1.04-1.82.59-.15-.54.3-1.83.2-2.19-.6 1.35-2.38.32-3.15 1.63.24-.32.35-1.18.3-1.37l-.53 1.06c-.42-.42-.48-.6-.32-1.28-1.37-.41.2 2.15-1.35 1.01.14-.06.1-.24.39-.37-1.6-.71-3.32.24-4.77-.53-.17-1.71 1.4-.21 1.11-1.68-1.11-.01-2.33.35-3.53.55-1.19.14-2.36.18-3.37-.26l.35.28c-.83 2.22-1.3-1.51-2.61-.69.31-.11.67-1.19.53-.95-1.31-.76-3.08-.03-5.42-.07l.44-.49c-.66-.81-2.06-1.06-2.86-1.63-.46.49-.93.21-.91 1.15-1.52-4.18-5.96-.05-7.17-3.91.28.13.87-.17.66-.28l-2.2-.41c-.28 1.01 0 .69.08 1.61-.51.44-1.27.6-1.78.37 1.2-.19.69-1.5.55-2.19-.06.31-.35.56-.46.87-.25-2.13-1.07 1.78-1.98 0l.32-.44c-.66 0-1.47.4-1.99 0 .31-1.17.83-.23 1.31-1.09-.85-.28-2.64 1.23-2.77-.25.49-.09.96.18 1.44.09-.11-1.68-.35-1.42-.8-1.95l.04.06-.97-1.31.14.52c-2.49 2.14-2.21-.65-4.56.33 2.27-.9.78-.84 1.59-1.93-.14-.51-.4-1.15-.06-1.4-1.18.57-.54-1.31-2.24-.47.2-.39-.61-.42.12-1.25-.95-.19-.24.75-.59 1.15-2.02.46-1.64-3.41-4.45-2.93-1.91-.36-3.06.61-4.85.2-.02-.88 1.34-.97 1.34-.97-.31-1.05-.96-1.29-1.89-1.48.37-.18.44-.55.56-1.09-.56-.36-1.34.91-1.6-.18.43-.26 1.08-.72 1.62-.88-.83-.22-1.94-.13-2.81-.39.34-.71 1.12-.53 1.66-.71-.9-.35-2.2-1.07-3.23-.38l.16.72c-.3-.19.56-.88.89-.88 1.21-.17.56 1.07.31 1.43l-.61-.18c-1.24 2.31 2.03 1.28 2.79 2.18l-1.56 1.08 1.9-.36c-.12.55-.64 1.47-1.25 1.28.07 1.29 1.02-.04.96 1.21-.03.18-.12.22-.22.23l1.03.07c-.38.21-.7 1.11-.95.59.58 1.76 2.83.36 2.45 1.82h-.17c2.08.76.98-.95 3.18-1.31l-1.08 3.36.94-.98c.15.17.43.51.06.9 1.19-.28.22-.56 1.1-1.01.13 1.67 2.66 1.17 1.7 3.07.88-.68-.42-1.17.92-1.21-.97 2.12 1.32.32 1.58 1.7-.88.88-1.34-.14-1.07 1.27 1.56-1.44 1.4 1.34 2.31 1.43.85-1.38 1.86.32 3.3.54-.17.21.28.75.89 1.33.62.55 1.42 1.18 1.87 1.7l-.16.23c.95-1.37 2-.54 3.02-.44-.46.88-.77 1.15-1.43 1.32l.83.38c.41-.38.78-.52 1.4-.44l-.71 1.02c1.13.45 2.77-.3 3.86 1.11.51-1.04.11-3.42 1.85-3.49-.18.58-.52 1.59-1.01 1.67.16-.02.66-.31.82.03l-.98.74c.49.66.67-.68 1.15-.4-.34.82.16.72-.17 1.34-.17.02-.33-.51-.67-.25.54.35 1.08 1.09 1.09 1.8.12-.49.41-1.1.9-1.06 1.15.34.01 1.12.53 1.79.49-.48 1.01.37 1.46-.86.33.12.19.72.2 1.1.78-.34 2.82.8 2.58-.75l-.13-.14s.07-.01.12-.02h-.01.01c2.27-.51 3.79 1.96 5.92 1.88l-.11.42c1.29-.2 2.68.35 3.72-.37.34.08.64.98.38 1.46.96-.12 1.15-.56 2.31.44-1.05.56.18.75-1.04.34 1.09.68 1.26 1.32 2.75.36-.64 1.04.67 1.52 1.29 1.28l-.71-.92c.67-.06 1.21.11 1.76.29l-.53 1.42c2.27 2.14 4.81-2.38 6.36.85.74-.96-1.28-.87-.57-2.02 1.09.35 2.12 2.46 2.48 2.5 1.53.9 1.61-2.09 3.21-1.45-.19-.53-.31-1.95.9-2.39 1.1.25 1.31 2.29.58 2.67-.28.03-.4-.14-.38-.32-.37.18-.87.38-.43.97l.17-.52c.54.56 2.13.58 1.74 1.43.88-.47.38-.85-.24-1.15 1.45.8 2.29.2 3.8.6-.24-.28-.47-.89-.23-.9 2.22.55.96-1.04 2.43-1.34.87.76-.24 1.94 1.24 1.19.94.51.26 1.4-.1 1.84 1.34-1.08 2.64.54 3.46.69l-.71.47c.43-.28.79-.29 1.16-.31l-.51-1.03c.46.16.82.15.85.58.38-.71-.48-1.74.31-2.72.62.54 1.66-.69 1.99.66-1.82-.24.35 1.41-1.15 1.77.29-.17.64-.2 1.09-.08.07.14-.03.3-.15.39 1.86 1 .64-1.69 2.4-1.92-.14.83.59 1.43.87 1.23-.73.08-.51-1.26.05-1.96 1.22.44 1.16-.62 1.76-.64l-.71-.19c.12-.82.69-.79 1.42-1.15.16.6-.64.52-.32.75.64-1.49 2.19 1.13 3.25.03.66.45.33 1.45.89 1.74 1.15-1.3 1.68.71 2.94-.45-.64-.94-.65-.67.12-1.92l-2.15 1.29 1.15-1.87c-.69.15-1.32 1.01-1.78.93.54-1.02.51-.74.01-1.52 1.27 1.33 1.66-1.35 2.97-.57l.56 2.56c1.95.73 2.64-2.02 4.94-1.92l-.82-.26c0-1.09 1.29-.44 1.85-1.06.19.86.7 1.02 1.15 1.44-.23-.6 1.57-.48 1.21-2.21l1.29.77c1.86-.15 1.11-3.04 2.79-3.31-.15 1.07.8 1.4-.05 2.41.55-.18 1.09-.2.89-.77.52.4 1.07-1.63 1.87-1.03.07-.46-.18-1.28.42-1.49.13.14.16.4.16.4-.16-.4.68-.96-.2-1.63 2.66 1.79 4.3-2.21 6.68-.72.98-.83 2.25-1.61 3.18-2.27.06.26.2.38-.02.41 1.73-.07-.39-2.7 1.56-2.78 1.47.77-.43 1.14.32 1.32 1.64 2.39 1.64-1.43 3.53-.58l-.17.3c1.31.37 1.37-2.07 2.75-2.66 0 0 .07.25.22.37.12-1.7 1.31-3.33 2.22-4.47.31 1.18-.17.87.71 1.64.42-.51-1.21-1.4-.38-2.4.69.26 1.74.16 2.57 1.07l-.94.77c1.44.91 1.24-.97 1.92-1.13l.35.6c1.38-1.29.32-2.68 1.99-3.76l-.5-.29c-.26-2.01 1.3.16 1.28-1.54l1.38 1.12c.26-.81.75-2.96 1.46-4.06.35 1.44-.33 2.95-.52 4.17.54-.48 1.73-1.74 1.42-2.63-.11.32-.08.88-.48.87-.26-1.62.11-2.87 1.16-3.78 2.16 2.63 3.33-1.81 5.83-.82.79-2.74 3.79-3.38 5.64-5.74-2.73-.92.52-.7-1.69-2.29.33-.6.47-.83.66-.75l2.5-.66c.92.1.08.9.6 1.23 1.07-1.1 1.29.19 2.47-.19-.89-.42-.79-1.27.02-1.76l-1.73.24c.08-2.56 2.93-.14 3.04-2.71l.3 1.04c.23-1.19 2.51-3.28 1.13-5.44.36.01 1.12.18 1.04.71 1.64-2.13.97-6.21 3.17-7.29l.49.49c.08-.52-.67-1.32.23-1.54.22.16.49.48.64.31-.08-.35-.49-1.71.14-2.13l.43.85c1.87-1.96.02-4.37.49-6.45 1.78.8 3.22-.78 3.94-1.59l.24.14c1.26-2.76.18-5.41.35-8.2 2.71-.93 2.51-5.27 4.3-7.66-.44.33-1.47-.42-1.55-.94.54-.54-.91-2.01.83-1.53l-.08.22c1.82-.1 1.7-1.5 1.96-2.52l-2.28-.6c3.76-2.11-.23-7.14 3.01-8.19-.5-.71-.35-1.51-.93-2.21l1.25.15c.41-1.79.61-2.7.42-4.96l.88.5c.15-1.29-3.55-1.75-3.57-2.88l1.9-.31c.16-2.18 1.57-4.48-.2-6.6.28.02.83.06.91.42 0-1.04 1.08-4.13-1.47-3.56 1.64-.15.13-2.3-.83-3.38l1.26.05c-1.71-.83-2.15-.8-2.78-2.11.12-.34.94-.4.7.06.49-1.16-1.29-.69-.83-2.07l.86.37c-.06-1.12-.48-.97-1.47-1.44-.59-.61 0-2.13 1.08-2.5-.69-.03-1.67-.48-1.45-1.18.4-.17.69.02.84.12.48-2.02-2.04-2.41-1.13-3.93.39-.12.57-.24.67-.37.33 1.46.54 2.65.43 2.55 1.11-.22 1.03-1.46 2.79-.84-1.08-.8-3.29-2-3.05-3.27.08-.08.18-.16.34-.24l.16.08c.04-.3-.12-.51-.36-.69.1-.41.17-.68.1-1.04.89-.38.16-1.5.06-2.11-1.2.38-1.19-.43-2.01.56.06-.12.17.07.32.45.06.08.11.18.19.22h-.12c.12.36.26.86.43 1.42-.73-.31-1.35-.64-.85-1.46-.85-.08-1.73-.19-2.14-.26 1.54-1.27 1.87-3.04 2.84-3.58-1.28-1.55-1.89-4.01-4.48-4.28-.46-.38.43-.79.72-1.11.32.2.4.55.77.59-.91-.77-1.24-2.85-2.86-2.46.14-1.46 1.72.09.71-1.43l.56.02c.87-4.35-6.19-3.45-4.85-8.44-.03.33-.07.5-.3.68-.43-2.29-1.95-4.1-3.3-5.94-.68-.93-1.33-1.85-1.84-2.87-.53-1.01-1.02-2.01-1.18-3.26-.36-1.28-1.29-.79-2.39-.93l.93-1.01-2.02-.13c-2.01-.72.82-4.72-2.5-5.07l-.49.82c-.43-.74-2.18-1.62-1.3-2.2-.18.04-.89.42-.75-.14l.51-.49-2.28-.71c-.7-1.52 2.22-1.7.73-3.56-.79-.48-3.13-.41-3.25.16.21.29.29.96-.2 1.48l-.78-.32c-1.57 1.34-3.43 2.45-3.25 4.8l1.76.06-.46 1-.75-.74c-.28 1.1.57.8 1.28.73-.32.43-.48.83-.46 1.14l2.3-.41c-.51.66-1.57.67-1.34 1.58 1.07-.18.97-1.63 2.08-1.31-.3 1.08-1 1.45.1 1.45-.34.42-.7.54-1.06.49.9.04 1.32 1.05 2.38.58-.44 1.2 1.66 1.42.06 2.63.48-.14 1.86-.06 2.28.36-2.49.58 1.18 1.84-1.01 3.12 2.15-.64 2.41 1.7 4.2 2.15-.19.03-.56.11-.54-.06.32.73-.07 1.27-.12 1.88 1.55-.91 2.48-.05 3.73-.06-.93 1.74-2.02.59-3.23 1.73 1.16-.8 2.03.67 2.87-.23-.52 1.19-.12.81-1.15 1.89 1.93-1.02.66.38 2.12.22-.38 1.46-1.63 1.27-.47 1.93-.3.81-1.49.31-1.49.31m13.65 24.12h-.02c-.08-.22-.16-.41-.21-.54.05.12.12.26.23.54m.58 2.28c-.02-.29-.1-.64-.2-1.01.4-.17.86-.18.9.05-.32-.06-.42.54-.7.95m7.18-7.1c.26.35.06.55-.17.67-.06-.18-.16-.39-.32-.66h-.16c.24-.03.47-.04.65-.01" class="cls-1"/><path d="M315.6 181.68c-.04-.05-.09-.06-.13-.14-.08.11-.16.21-.21.31l.41.03-.07-.2ZM180.94 309.72l.04.04a.423.423 0 0 1-.05-.2c.02.06 0 .11.01.16m128.5-88.48.32.03-.24-.23-.08.2zm-139.36 79.54c.02-.11.03-.23-.02-.36-.02.07-.01.21.02.36m-4.94-2.78-.48-.79c.18.39.34.62.48.79m-3.42-2.75c-.16.16-.26.3-.35.41s.35-.41.35-.41Zm65.79 11.77c.05-.01.11-.04.16-.08.34-.29.1-.16-.16.08m-20.25 3.82c.23-.21.47-.42.7-.56-.36-.11-.65-.15-.7.56m41.39-10.96.01.02.13-.04-.14.02zm-39.74 10.47c-.36-.26-.67-.22-.95-.06.3.1.65.24.95.06m-61.81-26.67-.12-.18c-.05.06-.11.11-.16.14l.27.04Zm-.27-.05-.27-.04c.08.06.16.13.27.04m-.84-.14.57.1c-.12-.12-.24-.29-.57-.1m5.02 4.39.34-.32c-.08.05-.2.16-.34.32m1.49.93c-.27-.33-.24-1.38-.88-1.49l-.26.25c.64-.37.35 1.61 1.14 1.24m2.74 8.97-1.04-1.21c-.05.55-.13 1.3-.76.98.76 2.35.29-1.13 1.8.22m3.74 3.05c-.84-.23-.35.6-.53.82.69-.11.85-.14.53-.82m32.1 12.66-.32 1.09c.67 0 .1-.42.32-1.09m7.39-4.7-.48-.78-.43 1 .91-.22zm2.77 8.59-.29.12 1.12-.26-.83.14zm57.72-10.09-.77-1.19c-.29.41.29 1.87.77 1.19m20.76-14.6c.68.4 1.48.24 1.38-.57-.49.31-1.25.28-1.38.57m39.91-63.41.39.59-.24-1.03-.15.44zM166.74 163.9c-.15-.39-.84-.94-1.02-.48l.84 1.27.18-.79Zm-4.03.4c.16.89.69 2.18 1.93 2.83-.71-1.33-.19-1.03-1.04-2.59.18-.47.88-.28 1.22.15-.16-.37.71-.3.21-1.12-1.22-.35-1.78.2-1.62 1.43-.35-.09-.53-.48-.7-.69m-19.95 40.92.19-.29c-.11.07-.16.17-.19.29m3.17 28.99c-.11-.2-.27-.24-.4-.21.16.17.3.31.4.21m.36 5.34c-.01-.12-.02-.21-.03-.32-.08.16-.1.3.03.32m-3.53-34.33-.5.75c.48.08.37-.38.5-.75m18.75-33.96c.03-.16 0-.35-.07-.55-.02.14-.05.26-.1.39l.17.16Zm-17.82 20.98.05-.23c-.14-.12-.32-.23-.53-.35l.48.58Zm2.93-9.62c-.15.19.97.73 1.45 1.02-.42-.31-.58-.55-.59-.77-.21-.09-.49-.17-.86-.24m9.56-12.67.02-.32c0 .08-.03.21-.02.32m-14.2 29.28c-.19-.01-.35 0-.46.02.16.02.31.01.46-.02m121.92-25.5c.07-.05.12-.08.18-.13-.14.03-.21.06-.18.13m-2.15-12.17.15.06.52-.46-.67.4zm-112.47 87.18v-.05c-.25-.14-.16-.03 0 .05m75.53 34.16c-1.14-.96 1.33-1.64-.31-2.66.22.46-1.02 2.12.31 2.66m-63.57-111.56c-.06.11-.13.21-.21.31.14-.12.2-.2.21-.31m63.26 108.9-.17-.11c.07.04.12.07.17.11m-60.59-15.04c.12-.19.16-.38.2-.56-.08.11-.15.25-.2.56m-9.46-13.2.1.41c0-.19-.04-.32-.1-.41m17.12 17.07c.12.2.07.39.41.42.01-.06.02-.12.01-.18-.18.08-.34.06-.42-.24m7.33 4.59c.01-.11-.01-.2-.02-.31l-.26-.07.29.38Zm95.27-79.58c.3-.25.65-.45 1.01-.64-.84.35-1.4-.66-1.01.64m-113.22-23.25c.22.22.31.37.3.51.04-.07.07-.16.1-.24-.14-.14-.28-.24-.39-.26m16.55 90.36.85.86c-.19-.3-.51-.6-.85-.86m87.78-15.06.04-.31c-.08.06-.12.17-.04.31m-83.82 17.59c-.04.49.02.83.14 1.09.1-.06.19-.11.29-.21l-.42-.88Zm93.71-70.29h-.01.01Z" class="cls-1"/><path d="M269.89 186.93c.38 1.05 1.68-.11 2.65-.22.89 1.13-.92 1.04-1.56 1.77.68.64 2.32.75 2.48 1.39-.24.13-.3.28-.67.25 1.56.44.98 2.49 2.75 3.11-.13.12-.25.19-.36.24.75-.39 1.55-.64 2.13-.75.16.51 1.25.72.25 1.19-.04-.34-.48-.25-.84-.32l.59.43c-1.39.87-.7-.61-1.81-.33.74.91 2.29 1.87 2.06 2.78-1.44.49-.96-1.78-2.01-.41l.26-1.37c-2.09 1.5-.02-.77-2.29.69-.06 1.66 1.23 1.59 1.1 3.27.88.21 1.21-.35 2.09-.14 1.83 2.14-3.49 2.42-1.26 3.81 1.07.31 3 .28 2.17 1.63l-1.77-.24c0 1.58 2.52.69 1.47 2.48-.68-.26-.62-1.23-.82-.97-1.29 1.19 1.01.7 1.05 1.56l-1.5.25c.33 1.66 1.55 3.54 1.65 5.47-.44-.13-.9-.47-1.39-.03.32 1.2.21 2.47-.09 3.71-.4 1.22-1.06 2.38-1.65 3.43l1.16 1.06c-.04.2-.64.28-.86.02-.6.79.82.18 1.26.7.02.52-.84.53-1.18.15.87 1.71 1.28 4.92-.42 6.19l-.3-.42c-.78 1.1 2.17 2.18.6 2.99l-.14-.29c-.74 1.26-1.09 2.72-1.57 4.05-.52 1.32-1.33 2.43-2.66 3 1.51 1.19-1.92 2.14.34 3.5-1.97.79-2.16.17-4.04 1.65-.4.44.95 1.61.79 2.41l-1.16-.72.7 1.65-1.67-.45-.12.76c.22-.18.86-.14 1.15.12-.15 1.25-2.37 1.62-2.94 1.21l-.59 2.77c-.4-.39-.3-.85-.37-1.34.29 1.97-1.28-.7-1.02 1.11.35.06.58.58.77.77-1.07-.05-2.02.97-2.47 1.99l-.57-.77c-.71.61-1.29 1.42-1.87 2.28-.59.85-1.3 1.63-2.09 2.35.87-.19 1.86 1.11 1.49 1.67l-1.18-.9c.3.93.87-.05.97 1.33-.72.42-1.5-.87-1.48-1.52l-.38 1.03c-.33-.29-.31-.6-.64-1.06.3.95-2.16 0-1.57 1.58l-.32-.3c-1.67 1.24-2.16 2.18-3.49 3.27.69 1.05-.02 1.23.12 2.38-1.3.4-3.08.23-4.33 1.12-.62 1.09.25 1.08.19 1.98-.64-.95-1.92-.06-1.61-1.2-1.52 1.09-2 1.22-3.75 3.1.42.31.77.37.79.79-.32.35-1.1-.02-1.26-.55l.05-.16c-.85 1.41-2.64 1.19-4.27.93-1.64-.23-3.09-.4-3.74 1.06l.07-.14-1.79 1.7c-1.04.05.37-.97-.53-1.48-1.84 2.39-3.61.69-5.3 2.14-1.02-1.56-2.27-1.31-3.6-.9-1.33.42-2.78.73-3.82-.25l.16.78c-.49.8-.65-.42-1.03-.58.07.61.58.68.28 1.13-4.44 1.2-9.09-1.38-13.21-2.77-1.53-.41-1.7 3.84-3.36 1.54l.89-1.29c-1.78.44-3.47.1-5.06-.44-1.58-.61-3.11-1.24-4.93-1.08.31-.24.48-.66.77-.55-.28-1.15-2.3-1.01-2.67-.22-.42-.31.2-.77.11-1.3-.35-.86-2.13.51-2.01-.6.02-.18.33-.23.48-.25-.64.28-1.82-.98-1.99.3-.86-1-2.31-.69-2.81-1.78-1.26.86-1.46-1.63-2.66-.08 1.11-1.64-.96-2.45-2.1-2.19.55-.35-.18-.92.54-1.43-.71-.49-1.58-.67-2.08.25.17-2.86-3.9-.41-2.57-3.47-2.59-.95-5.09-1.95-6.97-3.52 1.52-1.32 1.9 1.86 3.37.24-2.11-1-4.23-.87-5.42-2.87-.18-.61.89-.32 1.28-.39-2.23-1.09-2.48-3.56-4.63-4.49.16-.11.46-.04.7.03-.29-.29-.3-.91-1.03-.35l.43.17c-.69 1.28-3.24.28-3.86.57 2.53-.85-.5-2.14 2.85-2.96-.28-.14-.82-.19-1.3.19-.04-.43.2-.73.98-.75-1.14-.96-1.71-.03-2.37-1.17.39-.21.67-.07 1.19-.22-1.07-.12-2.17-.29-2.41-1.42.28-.07.51-.34.68-.05-1.04-1.57-3.46-1.92-3.63-4.19 2.01-.2.28-.9 1.76-1.64-.3-.28-.64-.54-.91-.83l-.57.72c-.35-.91-1.73-1.32-1.51-2.32l.89.45-.91-1.64-.24 1.21c-1.14-.68-1.95.8-1.96-.62.25.21-.32-.98.44-1.77-.66-.32-1.41-.64-1.16-1.49.46-.33 1.8-.35 2.11-.57-1.45-.09-.92-2.14-2.5-2.39.38.12 1.24-.07 1.39-.19l-1.19-.13c.23-.54.39-.65 1.09-.72-.13-1.4-1.96.88-1.46-.92.12.11.26.01.5.23 0-1.67-1.23-3.05-.95-4.65 1.59-.67.59 1.26 1.92.54-.31-1.04-.96-2.08-1.53-3.14-.53-1.08-.86-2.19-.73-3.26l-.16.4c-2.37-.18 1.09-1.64-.07-2.67.18.26 1.32.32 1.06.25.23-1.44-.54-2.92-1.21-5.2l.59.31c.6-.83.38-2.23.77-3.12-.56-.33-.39-.85-1.31-.61 1.93-1.24 1.65-2.59 1.31-4-.39-1.4-.6-2.81 1.08-3.72-.06.3.35.81.41.58l-.04-2.21c-1.03-.09-.67.12-1.55.36-.53-.41-.84-1.14-.71-1.68.42 1.15 1.6.41 2.25.17-.33-.02-.62-.25-.94-.3 2.06-.6-2.01-.78-.32-1.94l.49.23c-.06-.62-.56-1.37-.2-1.93 1.21.13.32.77 1.23 1.11.22-.84-1.55-2.39-.16-2.76.18.48.01.98.2 1.45 1.6-.36 1.29-.56 1.71-1.09l-.05.04 1.08-1.15-.48.21c-2.57-2.21.37-2.24-.89-4.44 1.13 2.12.91.68 2.09 1.33.5-.19 1.12-.52 1.4-.21-.7-1.09 1.24-.65.22-2.23.4.16.35-.65 1.25-.01.06-.95-.76-.16-1.21-.47-.69-1.97 3.18-1.91 2.41-4.66.14-1.94-.89-3.02-.48-4.76.89-.05 1.03 1.27 1.03 1.27 1.05-.35 1.33-.94 1.43-1.92.21.36.57.41 1.11.51.3-.6-1-1.32.03-1.64.29.42.78 1.05.98 1.6.15-.85-.07-2.01.17-2.87.73.33.55 1.09.78 1.64.28-.93 1.02-2.18.3-3.19l-.72.16c.18-.29.89.54.9.87.19 1.17-1.08.56-1.44.32l.17-.6c-2.4-1.22-1.16 2.1-1.96 2.93l-1.18-1.52.5 1.91c-.53-.07-1.48-.54-1.34-1.19-1.26.16.07 1.01-1.2 1.02-.17-.03-.22-.12-.24-.21l-.05 1c-.21-.35-1.15-.62-.62-.9-1.83.64-.29 2.8-1.73 2.54l-.03-.17c-.56 2.17 1.04.91 1.6 3.09l-3.43-.79 1.07.86c-.15.17-.46.49-.89.16.39 1.15.58.17 1.11 1.01-1.67.29-.89 2.76-2.89 2.02.77.8 1.14-.55 1.31.78-2.22-.74-.19 1.34-1.56 1.75-.96-.76 0-1.34-1.38-.9 1.6 1.38-1.22 1.55-1.21 2.47 1.43.64-.05 1.92.01 3.41-.48-.28-1.68 2.15-2.68 3.21l-.24-.11c1.44.7.86 1.9.94 2.91-.93-.29-1.26-.55-1.56-1.19l-.21.9c.46.35.65.69.69 1.31l-1.12-.52c-.22 1.23.79 2.71-.33 4.08 1.11.29 3.3-.58 3.81 1.12-.61-.05-1.66-.18-1.85-.65.06.15.43.58.14.8l-.93-.83c-.54.61.8.52.62 1.06-.86-.17-.68.3-1.36.11-.05-.16.43-.42.13-.7-.24.6-.87 1.28-1.57 1.44.5.02 1.16.19 1.22.67-.12 1.21-1.11.26-1.66.91.56.38-.18 1.08 1.12 1.25-.05.35-.67.35-1.05.46.42.68-.03 2.97 1.38 2.36l.1-.15s.03.06.05.11c1.24 2.1-1.03 4.2-.39 6.26h-.44c.56 1.21.42 2.71 1.41 3.5.02.36-.76.9-1.29.78.41.91.8.96.29 2.37-.89-.86-.65.39-.68-.9-.24 1.24-.87 1.61.5 2.76-1.18-.31-1.27 1.11-.86 1.64l.68-.96c.25.61.23 1.2.22 1.79l-1.5-.07c-1.48 2.93 3.92 3.84 1.4 6.39 1.16.39.38-1.51 1.69-1.22.07 1.14-1.68 2.89-1.6 3.26-.37 1.8 2.53.8 2.52 2.53.42-.37 1.7-.97 2.56-.01.19 1.11-1.62 2.06-2.25 1.51-.14-.24-.02-.42.15-.48-.31-.29-.68-.68-1.07-.06l.55-.02c-.32.72.26 2.22-.67 2.17.76.67.93.04.97-.66-.23 1.68.73 2.21.94 3.8.17-.34.65-.78.74-.56.35 2.31 1.33.49 2.17 1.75-.37 1.12-1.86.55-.61 1.65-.1 1.09-1.16.8-1.71.65 1.48.85.55 2.71.85 3.51l-.76-.45c.46.28.64.6.83.93l.71-.89c.06.48.25.79-.14 1.01.84.05 1.35-1.15 2.63-.86-.17.76 1.39 1.2.29 2.1-.52-1.82-1.1.91-2.09-.33.3.18.48.5.55.98-.11.14-.29.1-.41.03-.15 2.2 1.77-.12 2.67 1.46-.78.23-1.04 1.19-.7 1.33-.43-.61.89-1.02 1.78-.82.18 1.28 1.12.76 1.42 1.28l-.17-.72c.78-.26 1.04.25 1.7.74-.46.42-.76-.33-.82.05 1.63-.12.03 2.48 1.52 2.92-.07.79-1.13.97-1.1 1.61 1.69.44.19 1.86 1.83 2.45.51-1.03.28-.9 1.75-.82l-2.19-1.31 2.21.15c-.48-.54-1.54-.7-1.68-1.14 1.15 0 .9.11 1.34-.71-.56 1.76 1.99.83 1.94 2.36l-1.97 1.74c.37 2.07 2.97 1.47 4.21 3.39l-.21-.82c.94-.55 1.12.82 1.95 1-.65.6-.53 1.14-.66 1.76.4-.51 1.21 1.18 2.5-.02v1.55c1.09 1.58 3.21-.69 4.36.58-.98.45-.72 1.42-2.09 1.27.48.35.8.79 1.18.31-.04.66 1.99 0 1.94 1 .41-.17 1.01-.88 1.48-.44-.04.19-.25.36-.25.36.25-.36 1.14.11 1.23-1.04-.01 3.26 4.27 2.32 4.43 5.16 1.21.43 2.76.71 3.8 1.16-.18.2-.19.39-.35.22 1.1 1.41 1.94-1.88 3.14-.32.26 1.68-1.15.31-.86 1.04-.91 2.76 2.11.58 2.65 2.49l-.34.05c.55 1.24 2.54-.26 3.89.42 0 0-.15.22-.15.41.72-.53 1.57-.74 2.41-.85.87-.16 1.74-.17 2.48-.2-.71.98-.78.42-.8 1.6.67 0 .29-1.83 1.6-1.84.24.7 1.02 1.45.87 2.67l-1.21-.22c.24 1.69 1.57.33 2.13.75l-.22.66c1.91.25 2.27-1.58 4.21-1.13l-.13-.55c1.32-1.56.76 1.09 2.01-.02l.11 1.79c.78-.31 2.7-1.31 3.99-1.64-.82 1.28-2.39 1.85-3.43 2.43.72.17 2.49.17 2.92-.71-.3.15-.71.56-.97.28 1.02-1.33 2.19-1.95 3.59-1.85-.38 3.39 3.66 1.07 4.76 3.55 2.53-1.4 5.2.39 8.22-.35-1.42-2.47.87-.2.3-2.86.65-.28.91-.26 1.01-.11l2.35 1.3c.66.7-.54.69-.37 1.27 1.58-.03.86 1.02 2.03 1.5-.4-.9.24-1.48 1.2-1.33l-1.49-.93c1.78-1.92 2.35 1.78 4.17-.14l-.47 1c.49-.38 1.51-.62 2.48-1.09.93-.54 1.79-1.27 1.96-2.49.29.23.77.85.37 1.2 1.33-.29 2.56-1.33 3.73-2.23 1.13-.96 2.18-1.85 3.41-1.66l.1.69c.37-.39.25-1.5 1.11-1.15.08.25.11.68.33.61.15-.32.69-1.61 1.46-1.54l-.17.9c2.77-.42 2.63-3.6 4.22-5.03 1.01 1.65 3.18 1.2 4.16.78l.13.24c2.61-1.69 3.39-4.3 4.9-6.78 2.66.41 5.07-3.19 7.72-4.57-.55.08-1.07-1.09-.88-1.59.73-.22.18-2.23 1.47-.97l-.18.15c1.64.78 2.26-.53 2.95-1.33l-1.73-1.62c2.15-.02 3.01-1.71 3.68-3.25.73-1.51 1.12-3 2.81-2.85-.16-.89.26-1.6.1-2.46l1.07.66c1.2-1.46 1.94-2.15 2.6-4.4l.6.83c.64-1.17-2.57-3.08-2.16-4.15l1.86.45c.98-2 3.27-3.63 2.39-6.31.25.12.74.36.69.73.39-.98 2.61-3.56-.04-3.92 1.62.44.72-2.23.28-3.56l1.16.48c-1.3-1.37-1.72-1.48-1.81-2.92.23-.29 1.04-.08.62.29.89-.95-.92-1.06-.08-2.25l.7.64c.26-1.11-.17-1.1-.98-1.86-.39-.77.6-2.05 1.75-2.1-.66-.24-1.48-.95-1.06-1.58.43-.04.66.22.76.36 1.15-1.81-1.24-2.92.08-4.13.41-.01.62-.08.75-.19-.11 1.52-.23 2.74-.32 2.61 1.14.12 1.41-1.13 2.92 0-.79-1.11-2.58-2.91-1.99-4.09.11-.05.22-.11.4-.15l.12.13c.13-.28.03-.53-.15-.77.21-.38.36-.62.39-1 .98-.14.48-1.45.5-2.07-1.25.07-1.08-.73-2.08.05.08-.11.15.11.22.52.04.08.06.2.14.25l-.11-.04c.05.4.12.93.08 1.52-.59-.49-1.14-.98-.49-1.66-.82-.3-1.66-.61-2.05-.79 1.7-.85 2.57-2.53 3.63-2.83-.71-1.85-.87-4.44-3.37-5.26-.37-.47.58-.69.92-.94.28.26.29.64.65.75-.75-.96-.69-3.09-2.33-3.03.49-1.44 1.66.43 1-1.29l.55.15c.86-2.03-.53-3.29-1.8-4.5-1.23-1.24-2.58-2.35-1.64-4.77-.11.33-.15.5-.39.64-.02-2.38-1.12-4.49-2.39-6.45-1.18-2.01-2.22-4-2.42-6.48-.24-1.33-1.22-.93-2.28-1.16l1-.94-1.98-.31c-1.93-.87.82-4.51-2.33-5.19l-.54.79c-.37-.78-1.98-1.82-1.12-2.35-.19.04-.91.4-.77-.15l.53-.47-2.31-.76c-.7-1.52 2.27-1.66.74-3.55-.82-.49-3.18-.44-3.28.14.21.29.3.97-.19 1.48l-.78-.33c-1.58 1.34-3.42 2.47-3.28 4.78l1.75.04-.47.98-.74-.73c-.3 1.08.56.78 1.26.71-.33.43-.49.8-.48 1.12l2.31-.4c-.52.64-1.59.65-1.39 1.53 1.09-.18 1.02-1.59 2.12-1.27-.32 1.06-1.02 1.39.04 1.42-.36.42-.69.5-1.06.45.89.06 1.18 1.12 2.24.71-.56 1.2 1.48 1.51-.14 2.61.49-.13 1.9-.02 2.31.4-2.52.47 1.11 1.81-1.21 2.97 2.16-.48 2.16 1.84 3.87 2.42-.19.02-.56.05-.53-.11.23.74-.21 1.24-.32 1.83 1.61-.74 2.43.17 3.68.29-1.11 1.6-2.08.38-3.4 1.38 1.25-.68 1.94.84 2.88.05-.65 1.09-.2.77-1.37 1.7 2.04-.78.61.43 2.1.44-.56 1.37-1.75 1.02-.71 1.8-.44.75-1.5.12-1.5.12m8.32 25.59h-.03c-.01-.23-.03-.43-.04-.57.01.13.03.29.07.57m-.1 2.33c.06-.28.08-.64.1-1.01.43-.06.88.05.84.29-.27-.14-.55.4-.93.72m8.87-4.95c.2.41-.06.55-.32.61-.01-.2-.06-.42-.16-.73-.05-.01-.11-.03-.16-.04.24.03.47.08.64.16" class="cls-1"/><path d="M285.25 209.16c-.03-.06-.08-.09-.09-.17-.11.08-.2.17-.28.25l.4.14-.03-.22Zm-142.27-4.27-.03.05c.05-.04.11-.08.18-.09-.06.02-.1.02-.15.04m123.18 38.85.28.17-.14-.32-.14.15zm-116.67-51.28c.12.01.23-.01.35-.07-.08-.02-.21.02-.35.07m2.01-5.22.68-.58c-.35.22-.54.42-.68.58m2.21-3.7c-.18-.14-.32-.22-.46-.3h-.01l.47.3Zm7.38 63.39s.08.07.14.1c.42.16.19.01-.14-.1m-11.5-16.63c.29.14.57.28.78.45-.03-.37-.11-.65-.78-.45m27.83 30.82-.01.02.1.08-.09-.1z" class="cls-1"/><path d="M150.66 231.64c.12-.42-.03-.69-.3-.9.02.31.02.68.3.9m13.28-63.24.18-.12a.467.467 0 0 1-.14-.15l-.04.26Z" class="cls-1"/><path d="m163.98 168.14.04-.26c-.07.07-.13.15-.04.26m.13-.83-.08.56c.12-.12.28-.24.08-.56m-4.05 5.16.33.32c-.05-.08-.16-.19-.33-.32m-.91 1.45c.33-.27 1.4-.26 1.5-.88l-.26-.25c.39.59-1.64.38-1.24 1.13m-8.64 3.49 1.1-1.16c-.56 0-1.31 0-1.05-.67-2.28 1.02 1.15.17-.05 1.83m-2.67 4.08c.15-.86-.65-.27-.88-.42.18.67.22.83.88.42m-5.85 34.29h-1.14c.2.65.44-.03 1.14 0m6.63 5.66.61-.69-1.06-.1.45.79zm-7.16 5.38-.23-.24.67.98-.44-.74zm35.57 47.04.52-1.32c-.5 0-1.38 1.31-.52 1.32m24.75 7.17c.16.73.83 1.28 1.37.67-.56-.18-1.05-.8-1.37-.67m69.85-25.55.05.72.29-1.05-.34.33z" class="cls-1"/></svg>